<?xml version="1.0" encoding="UTF-8"?>
<svg version="1.1" xmlns="http://www.w3.org/2000/svg" width="512" height="512">
<path d="M0 0 C0.82929758 -0.00538554 1.65859515 -0.01077108 2.51302296 -0.01631981 C5.2781273 -0.03057077 8.04275098 -0.02350279 10.80787659 -0.01637268 C12.79590743 -0.02207773 14.78393499 -0.02904252 16.7719574 -0.03717041 C22.16245129 -0.05510167 27.5527824 -0.05393349 32.94329715 -0.04822803 C37.44632102 -0.04513622 41.94931362 -0.05122852 46.45233303 -0.05726677 C57.07657066 -0.07131021 67.70072787 -0.06975211 78.32496643 -0.05836487 C89.27964368 -0.0468828 100.23407613 -0.06096132 111.18872112 -0.08776134 C120.60039189 -0.10992311 130.01198584 -0.11655466 139.42368084 -0.11068493 C145.04209033 -0.10731544 150.66034289 -0.10973011 156.27873039 -0.12693596 C161.5623077 -0.14241057 166.84552252 -0.13844359 172.12908554 -0.11963081 C174.06563689 -0.11594644 176.00221512 -0.11904897 177.93874168 -0.1295166 C180.5875071 -0.14273861 183.23507457 -0.13116865 185.88378906 -0.11352539 C187.02646646 -0.1279329 187.02646646 -0.1279329 188.19222826 -0.14263147 C194.85106369 -0.05170614 199.98703756 2.15314517 204.96632385 6.5712738 C205.59796448 7.31506287 206.2296051 8.05885193 206.88038635 8.82518005 C207.52749573 9.56639099 208.1746051 10.30760193 208.84132385 11.0712738 C212.46323492 16.11304203 212.77155469 20.62451215 212.63038635 26.70018005 C212.62136292 27.44074646 212.61233948 28.18131287 212.6030426 28.94432068 C212.57962849 30.75891473 212.54376251 32.57334077 212.50538635 34.38768005 C214.15973442 34.0312719 214.15973442 34.0312719 215.84750366 33.66766357 C255.99628945 25.32261595 301.01403926 21.01708137 337.01132274 43.98153186 C352.59179491 54.20815992 366.43126849 66.5389368 379.69288635 79.57518005 C380.57294578 80.43668529 380.57294578 80.43668529 381.47078419 81.31559467 C415.18015928 114.45566723 433.31078168 146.34325216 433.79148424 194.1988405 C433.81777169 221.07115699 430.90891233 247.91099834 426.50538635 274.38768005 C420.56538635 274.38768005 414.62538635 274.38768005 408.50538635 274.38768005 C408.50538635 234.78768005 408.50538635 195.18768005 408.50538635 154.38768005 C374.51538635 154.38768005 340.52538635 154.38768005 305.50538635 154.38768005 C305.50538635 120.72768005 305.50538635 87.06768005 305.50538635 52.38768005 C274.81538635 52.38768005 244.12538635 52.38768005 212.50538635 52.38768005 C212.52633362 59.01023865 212.54728088 65.63279724 212.56886292 72.45603943 C212.63507898 94.31283261 212.67950397 116.16962969 212.71263504 138.02649689 C212.73326057 151.28105786 212.76138119 164.53552382 212.80714417 177.7900238 C212.84701197 189.3425905 212.87281923 200.89508838 212.88174033 212.44772196 C212.88695511 218.56481349 212.89921197 224.68170814 212.92830658 230.79873657 C212.95547453 236.557398 212.96382842 242.31578161 212.95781708 248.07450104 C212.95891668 250.18683126 212.96686214 252.29917086 212.98220825 254.41144562 C213.00215744 257.29916784 212.99730728 260.18584594 212.98640442 263.07359314 C212.99805578 263.90629903 213.00970715 264.73900493 213.02171159 265.59694433 C212.94726451 272.90943783 210.47066079 279.02317458 205.19288635 284.20018005 C199.03617439 289.98775297 191.91729609 291.51542342 183.62713623 291.50793457 C182.45313106 291.50931207 181.27912588 291.51068956 180.06954479 291.5121088 C178.78533296 291.50851069 177.50112112 291.50491259 176.17799377 291.50120544 C174.78567412 291.50089895 173.39335432 291.50103287 172.00103474 291.5015707 C168.27817034 291.50179612 164.55533819 291.49600731 160.83248138 291.48896027 C157.33693339 291.48325826 153.84139318 291.48299676 150.34584045 291.48228455 C140.12818483 291.47704073 129.91053518 291.46307954 119.69288635 291.45018005 C96.86101135 291.42955505 74.02913635 291.40893005 50.50538635 291.38768005 C50.50538635 358.37768005 50.50538635 425.36768005 50.50538635 494.38768005 C168.64538635 494.38768005 286.78538635 494.38768005 408.50538635 494.38768005 C408.50538635 460.72768005 408.50538635 427.06768005 408.50538635 392.38768005 C414.44538635 392.38768005 420.38538635 392.38768005 426.50538635 392.38768005 C426.50538635 431.98768005 426.50538635 471.58768005 426.50538635 512.38768005 C296.48538635 512.38768005 166.46538635 512.38768005 32.50538635 512.38768005 C32.50538635 439.45768005 32.50538635 366.52768005 32.50538635 291.38768005 C20.62538635 291.38768005 8.74538635 291.38768005 -3.49461365 291.38768005 C-14.05197498 288.22047165 -19.18402588 286.38649499 -24.54930115 277.25486755 C-26.14566288 274.10172331 -26.62071493 271.55210299 -26.62883472 268.07407093 C-26.63329257 267.1882489 -26.63775041 266.30242687 -26.64234334 265.38976175 C-26.64215898 264.41565636 -26.64197462 263.44155098 -26.64178467 262.43792725 C-26.64546136 261.4037862 -26.64913804 260.36964515 -26.65292615 259.3041665 C-26.66398216 255.82198962 -26.66781008 252.33984257 -26.6716156 248.85765076 C-26.67787879 246.36775619 -26.68452546 243.87786257 -26.69152832 241.38796997 C-26.7107693 233.90376394 -26.72135859 226.41956584 -26.73025611 218.93534234 C-26.73463983 215.41033625 -26.74000644 211.88533167 -26.74524498 208.36032677 C-26.76225713 196.64132785 -26.776751 184.92232987 -26.78399372 173.2033205 C-26.7859036 170.16231599 -26.78782393 167.12131149 -26.78977966 164.08030701 C-26.7902634 163.32448584 -26.79074714 162.56866468 -26.79124554 161.78993984 C-26.79954471 149.54788717 -26.82487973 137.30593225 -26.85736034 125.06392226 C-26.89044012 112.49352875 -26.90844332 99.92318489 -26.91163796 87.35274762 C-26.91380225 80.29563313 -26.92253891 73.23866117 -26.94809914 66.18158913 C-26.97209101 59.54221549 -26.97562603 52.90305215 -26.96533775 46.26362801 C-26.9648415 43.82717791 -26.97118826 41.39071533 -26.9848938 38.95430374 C-27.00256478 35.62667783 -26.99552923 32.2999774 -26.98236084 28.97235107 C-26.99333009 28.0093993 -27.00429933 27.04644752 -27.01560098 26.05431539 C-26.94721538 18.89082627 -25.14395681 13.87690823 -20.8188324 8.1806488 C-20.27871521 7.65084412 -19.73859802 7.12103943 -19.18211365 6.57518005 C-18.64973083 6.03248474 -18.11734802 5.48978943 -17.5688324 4.9306488 C-11.95078891 0.75150158 -6.78677453 -0.05338742 0 0 Z M-6.95393372 19.80735016 C-9.34731345 23.81578121 -9.04595923 27.59407903 -9.00254822 32.18089294 C-9.00878818 33.18604226 -9.01502814 34.19119158 -9.0214572 35.22679996 C-9.03744975 38.60488194 -9.02475807 41.9822486 -9.01219177 45.3603363 C-9.01761009 47.77805504 -9.0247311 50.19577047 -9.03343201 52.61347961 C-9.04980391 58.50453978 -9.04737184 64.39541324 -9.03578144 70.28646827 C-9.0267522 75.07373207 -9.0255209 79.86093874 -9.02987671 84.64820862 C-9.03048964 85.32925063 -9.03110257 86.01029265 -9.03173408 86.7119723 C-9.03301297 88.09544525 -9.03430982 89.47891819 -9.03562444 90.86239111 C-9.04703385 103.83883247 -9.03391093 116.81516083 -9.01242298 129.79158366 C-8.99455163 140.92881561 -8.99765564 152.0658808 -9.01609802 163.20310974 C-9.03749842 176.13273458 -9.04593518 189.06226037 -9.03364897 201.99190044 C-9.03237476 203.37031744 -9.03111727 204.74873446 -9.02987671 206.12715149 C-9.02925961 206.80537982 -9.0286425 207.48360814 -9.0280067 208.18238884 C-9.02455129 212.96455801 -9.03038623 217.74666441 -9.03979492 222.52882385 C-9.05217713 228.96386158 -9.04337635 235.39865811 -9.0202179 241.83366776 C-9.01491649 244.19921977 -9.01646887 246.56479823 -9.02526855 248.93033981 C-9.03615074 252.15207768 -9.02254835 255.37279487 -9.00254822 258.59446716 C-9.0114711 259.5372606 -9.02039399 260.48005404 -9.02958727 261.45141697 C-9.00614033 266.54238665 -9.00614033 266.54238665 -6.65036774 270.93725586 C-2.56460081 273.6862221 1.27023152 273.53379767 6.00767517 273.52812195 C6.77850201 273.53109307 7.54932885 273.53406419 8.34351408 273.53712535 C10.93442903 273.54581844 13.52529781 273.5473211 16.1162262 273.54881287 C17.97060241 273.55344056 19.82497766 273.55846516 21.67935181 273.56385803 C26.7227371 273.57698763 31.76610908 273.58342794 36.8095088 273.58786869 C39.95891595 273.59079816 43.10831945 273.5949027 46.25772476 273.59937286 C56.10724158 273.6130485 65.95675007 273.62271516 75.80627573 273.62657475 C87.18426998 273.63105756 98.56214423 273.64861552 109.94010198 273.67757535 C118.72997929 273.69917304 127.51982279 273.70927799 136.30972636 273.71061587 C141.56199861 273.71166516 146.81415806 273.71759936 152.06640244 273.73543549 C157.00594685 273.75188337 161.94529327 273.75408766 166.88485527 273.74529648 C168.69850252 273.74452437 170.51216027 273.74889158 172.32578087 273.75875473 C174.80046794 273.77142456 177.27444845 273.76562479 179.74913025 273.75517273 C180.82729824 273.76725734 180.82729824 273.76725734 181.92724741 273.77958608 C187.47586084 273.72472289 190.62538437 272.26768204 194.50538635 268.38768005 C194.80953598 266.50060157 194.80953598 266.50060157 194.76265526 264.31088448 C194.7723286 263.02323856 194.7723286 263.02323856 194.78219736 261.70957959 C194.77910015 260.76096047 194.77600295 259.81234135 194.77281189 258.8349762 C194.77960856 257.3298155 194.77960856 257.3298155 194.78654253 255.79424751 C194.79926814 252.41014391 194.79756092 249.02619956 194.7959137 245.64207458 C194.80189386 243.22465303 194.80869821 240.80723339 194.81626892 238.38981628 C194.8321454 232.49185471 194.83837958 226.59393088 194.83949368 220.69595231 C194.84044304 215.90293106 194.84454771 211.10992304 194.85089493 206.31690598 C194.8685144 192.73594623 194.87773275 179.15501813 194.87623398 165.57404687 C194.87611411 164.47511805 194.87611411 164.47511805 194.87599182 163.35398865 C194.87586918 162.25372216 194.87586918 162.25372216 194.87574406 161.13122807 C194.87493106 149.2420609 194.89407032 137.35302039 194.92226855 125.46388985 C194.95097569 113.26418429 194.96481004 101.06454054 194.963081 88.86480033 C194.96241632 82.01236811 194.96794243 75.16006864 194.9894371 68.30766678 C195.00951814 61.86447368 195.00899739 55.42148884 194.99440384 48.97827911 C194.99230492 46.60949419 194.99708054 44.24069203 195.00912476 41.8719368 C195.02446992 38.64574006 195.01533978 35.42052549 194.99986267 32.1943512 C195.0101498 31.25019352 195.02043692 30.30603585 195.03103578 29.33326733 C194.99058627 25.53509237 194.93446692 23.10693089 192.96554756 19.80650902 C189.5551822 17.83967646 186.47861147 17.83383035 182.64833069 17.87974548 C181.85144254 17.87350552 181.0545544 17.86726556 180.23351812 17.86083651 C177.56016905 17.84486678 174.88772675 17.85752598 172.21437073 17.87010193 C170.29910754 17.86468257 168.38384851 17.85756096 166.46859741 17.84886169 C161.26408256 17.8306033 156.05988434 17.8377063 150.85536385 17.85037804 C145.41329712 17.86049265 139.97125783 17.85111664 134.52919006 17.84483337 C125.38953271 17.83755249 116.25000457 17.84715628 107.11036682 17.86619568 C96.53794865 17.88796522 85.96583902 17.88091416 75.39342833 17.85889006 C66.3224204 17.84074866 57.25150545 17.83817157 48.18048525 17.84864473 C42.7600222 17.85488659 37.33970426 17.85569626 31.91925049 17.84249878 C26.82366147 17.83095928 21.72847092 17.83893132 16.63292503 17.86207581 C14.76081695 17.86737305 12.88867544 17.86583182 11.01658058 17.85702515 C8.46474559 17.84612599 5.91419474 17.85976421 3.36244202 17.87974548 C2.61808694 17.8708226 1.87373187 17.86189971 1.10682058 17.85270643 C-2.0409953 17.90065733 -4.21195602 18.22451276 -6.95393372 19.80735016 Z M323.50538635 65.38768005 C323.50538635 88.81768005 323.50538635 112.24768005 323.50538635 136.38768005 C346.93538635 136.38768005 370.36538635 136.38768005 394.50538635 136.38768005 C390.43420039 131.63796309 386.37952628 127.11689314 381.96510315 122.71800232 C381.34160477 122.09275162 380.71810638 121.46750092 380.07571411 120.82330322 C378.03783296 118.78106112 375.99636452 116.74245048 373.9546051 114.7040863 C372.53053419 113.27934121 371.10661171 111.85444775 369.68283081 110.42941284 C366.71148594 107.45659926 363.73835347 104.48558838 360.76393127 101.51585388 C356.94260076 97.70025142 353.12581888 93.88013522 349.31033611 90.05868626 C346.37747168 87.12222043 343.44224481 84.18812543 340.5062809 81.25475883 C339.09686087 79.84600764 337.68818811 78.43650842 336.2802639 77.02626228 C334.32214278 75.06561821 332.36087393 73.10817988 330.3986969 71.15159607 C329.81327118 70.56414612 329.22784546 69.97669617 328.62467957 69.3714447 C326.42563167 66.64353066 326.42563167 66.64353066 323.50538635 65.38768005 Z " fill="#000000" transform="translate(26.494613647460938,-0.3876800537109375)"/>
<path d="M0 0 C6.57581171 4.0433328 11.63523285 10.0978653 13.5625 17.5625 C13.93359375 20.640625 13.93359375 20.640625 14 23.8125 C14.03996094 24.84890625 14.07992187 25.8853125 14.12109375 26.953125 C12.25035336 39.040986 3.06853962 46.87406288 -5.12402344 55.16577148 C-6.53695052 56.61335536 -7.94895378 58.06184143 -9.36010742 59.51115417 C-13.98735225 64.25346584 -18.64103314 68.96938186 -23.296875 73.68359375 C-24.91225649 75.32187392 -26.52753343 76.96025718 -28.14270782 78.59874153 C-34.88360448 85.4335117 -41.63100015 92.26174383 -48.39657211 99.07209682 C-58.00777226 108.74704397 -67.5796854 118.45717793 -77.09756064 128.22397941 C-83.83483293 135.13115818 -90.61568834 141.99368805 -97.42828012 148.82657868 C-101.47227738 152.88471389 -105.49716822 156.95776615 -109.47600555 161.07989311 C-130.96558854 183.30447892 -151.64638284 197.88478666 -180.65880251 208.88312352 C-182.22009235 209.47946078 -183.7696366 210.10636241 -185.31695175 210.7380743 C-188.9139632 212.13651863 -191.58644097 211.92926753 -195.4375 211.5625 C-198.64058832 209.50923826 -199.28971749 208.12001126 -200.26171875 204.453125 C-200.52714429 198.57837313 -198.14137324 194.57043622 -195.58694077 189.38912201 C-193.21421211 184.51951993 -191.07117356 179.68294563 -189.25592041 174.57751465 C-180.61060424 151.61726294 -164.37064771 136.43283809 -147.12639904 119.56583214 C-142.95944881 115.47517803 -138.83412927 111.34289685 -134.70318604 107.21594238 C-127.78175768 100.31283969 -120.83303045 93.43829794 -113.86425781 86.58300781 C-104.93185607 77.79577581 -96.04701759 68.96198381 -87.17583847 60.11299896 C-79.51081669 52.46788515 -71.82464183 44.8441401 -64.1349535 37.22384834 C-61.67829094 34.78761259 -59.22451532 32.34849732 -56.77111053 29.90898132 C-52.91881334 26.08121584 -49.05351985 22.26704862 -45.1778717 18.46293259 C-43.76158895 17.06917137 -42.34939437 15.67124139 -40.9417038 14.26880264 C-39.01468558 12.35058161 -37.0730147 10.44849187 -35.12689209 8.54968262 C-34.57833297 7.99679109 -34.02977386 7.44389956 -33.46459174 6.87425375 C-24.72446969 -1.55058524 -11.52891264 -4.94421748 0 0 Z M-18.4375 18.5625 C-20.22569371 20.49276937 -21.81867033 22.48114756 -23.4375 24.5625 C-20.1375 27.8625 -16.8375 31.1625 -13.4375 34.5625 C-9.05034291 32.36892145 -7.20801751 30.56435863 -4.4375 26.5625 C-3.68689151 23.47632729 -3.68689151 23.47632729 -4.4375 20.5625 C-6.37390542 17.90890738 -7.81608623 16.8015053 -10.875 15.625 C-14.35565068 15.54010608 -15.69141361 16.43428305 -18.4375 18.5625 Z M-37.4375 37.5625 C-38.7575 39.2125 -40.0775 40.8625 -41.4375 42.5625 C-38.1375 45.8625 -34.8375 49.1625 -31.4375 52.5625 C-27.31346527 50.91393175 -27.31346527 50.91393175 -25.4375 47.5625 C-27.05636415 45.88987283 -28.6827729 44.22454463 -30.3125 42.5625 C-31.21742188 41.634375 -32.12234375 40.70625 -33.0546875 39.75 C-35.14394278 37.33707624 -35.14394278 37.33707624 -37.4375 37.5625 Z M-59.71754456 59.52801514 C-60.61601608 60.40784058 -61.51448761 61.28766602 -62.44018555 62.19415283 C-63.43885707 63.18235733 -64.43738744 64.17070448 -65.43579102 65.15917969 C-66.48515883 66.19111166 -67.5348857 67.22267861 -68.58494568 68.25390625 C-72.04494197 71.65615461 -75.49382955 75.06954858 -78.94140625 78.484375 C-79.82358893 79.35763853 -79.82358893 79.35763853 -80.72359347 80.24854374 C-86.28129433 85.75023329 -91.83531288 91.2556101 -97.37980747 96.77061081 C-104.4476396 103.80048326 -111.53315647 110.81134892 -118.6453653 117.79633021 C-123.65529728 122.71971336 -128.64340847 127.66456676 -133.61648506 132.62517095 C-136.57956128 135.57971071 -139.55081284 138.52462505 -142.54590034 141.4467392 C-155.57279006 154.17065259 -166.75765931 165.77317867 -172.4375 183.5625 C-159.2143741 179.59556223 -149.81261602 173.83962034 -140.16113281 163.96728516 C-139.09662809 162.90108358 -138.03079171 161.83621018 -136.96374512 160.77255249 C-134.09972217 157.91023557 -131.25444832 155.0299394 -128.41243076 152.14579439 C-125.42847229 149.12406732 -122.42726067 146.11957146 -119.42791748 143.11312866 C-113.76378134 137.43042001 -108.11510126 131.73260638 -102.47195125 126.02906549 C-96.04121278 119.53102448 -89.59321977 113.05022035 -83.14379358 106.57073522 C-69.88921106 93.25360986 -56.65621304 79.91522575 -43.4375 66.5625 C-44.39003871 65.44611407 -45.34330496 64.33034888 -46.296875 63.21484375 C-46.82764648 62.59343506 -47.35841797 61.97202637 -47.90527344 61.33178711 C-49.66556004 59.29915533 -51.43032611 57.35461954 -53.4375 55.5625 C-56.52081782 55.5625 -57.5518808 57.39677262 -59.71754456 59.52801514 Z " fill="#000000" transform="translate(498.4375,266.4375)"/>
<path d="M0 0 C18.75403668 14.61602613 31.11024803 35.32478032 34.2902832 59.02026367 C36.02638934 85.33629182 29.64246627 107.9675753 12.2902832 128.02026367 C11.71793945 128.6931543 11.1455957 129.36604492 10.5559082 130.05932617 C-2.15837391 143.84362213 -22.70391041 153.93423563 -41.31835938 155.19726562 C-67.74336802 155.77851855 -90.40055775 151.09366632 -110.3034668 132.38745117 C-111.0975293 131.6062793 -111.8915918 130.82510742 -112.7097168 130.02026367 C-113.4831543 129.2597168 -114.2565918 128.49916992 -115.0534668 127.71557617 C-130.77835861 111.29060356 -137.78118183 89.48070155 -137.7097168 67.02026367 C-136.96699786 46.41216354 -129.50625681 27.45027381 -115.7097168 12.02026367 C-114.97108398 11.1875293 -114.23245117 10.35479492 -113.47143555 9.49682617 C-104.1062247 -0.46616409 -92.65888532 -7.6097936 -79.7097168 -11.97973633 C-78.56760742 -12.37161133 -77.42549805 -12.76348633 -76.2487793 -13.16723633 C-50.46827764 -20.82165331 -21.62746147 -16.00540815 0 0 Z M-104.0144043 26.48901367 C-114.35885537 38.51199831 -119.31649768 53.61763327 -119.1472168 69.33276367 C-119.13891846 70.33678223 -119.13062012 71.34080078 -119.12207031 72.37524414 C-118.71435776 90.392947 -111.49673669 105.36394586 -98.7097168 118.02026367 C-98.04584961 118.71764648 -97.38198242 119.4150293 -96.69799805 120.13354492 C-83.95112562 132.63761978 -66.71984067 137.54358761 -49.28295898 137.44262695 C-29.84736465 136.8826183 -13.29694557 128.35832552 -0.0222168 114.33276367 C12.57266089 99.07358493 17.78589909 80.60113425 16.2902832 61.02026367 C13.77878642 42.07184032 3.28780761 25.67102508 -11.7097168 14.02026367 C-41.85514818 -7.96511128 -80.02814129 0.79525398 -104.0144043 26.48901367 Z " fill="#000000" transform="translate(247.709716796875,322.979736328125)"/>
<path d="M0 0 C62.37 0 124.74 0 189 0 C189 20.13 189 40.26 189 61 C126.63 61 64.26 61 0 61 C0 40.87 0 20.74 0 0 Z M18 18 C18 26.25 18 34.5 18 43 C68.49 43 118.98 43 171 43 C171 34.75 171 26.5 171 18 C120.51 18 70.02 18 18 18 Z " fill="#000000" transform="translate(25,25)"/>
<path d="M0 0 C5.94 0 11.88 0 18 0 C18.495 4.455 18.495 4.455 19 9 C19.70125 9.21914063 20.4025 9.43828125 21.125 9.6640625 C30.29976248 12.73062713 36.82049033 16.42734417 42.08984375 24.6796875 C43.42147171 28.07448152 43.64047525 31.37447669 44 35 C41.10259378 35.13539281 38.21154379 35.23426829 35.3125 35.3125 C34.49587891 35.35439453 33.67925781 35.39628906 32.83789062 35.43945312 C28.42665044 35.52874948 26.65058254 35.55007875 23.16796875 32.60546875 C22.09482422 31.31576172 22.09482422 31.31576172 21 30 C15.62670702 26.68391062 9.33189925 26.54016341 3.25 27.6875 C-0.58362221 28.66101177 -3.1271251 30.21979848 -6 33 C-5.63332049 35.65842648 -5.26739975 36.76322753 -3.2265625 38.5703125 C-0.90830231 40.05887957 0.68090263 40.58896411 3.375 41.0625 C4.68984375 41.30419922 4.68984375 41.30419922 6.03125 41.55078125 C8.12856935 41.86813878 10.2344416 42.13123153 12.34375 42.35546875 C22.23522234 43.46060006 31.59996023 45.84200207 38.5625 53.4375 C43.08792011 59.53814009 45.09965335 65.46674257 44 73 C42.07645143 80.21028269 38.11738592 84.85353243 32 89 C27.54934305 91.44044356 23.06968334 93.34584731 18 94 C18 96.97 18 99.94 18 103 C12.06 103 6.12 103 0 103 C-0.33 100.03 -0.66 97.06 -1 94 C-1.71285156 93.76925781 -2.42570312 93.53851563 -3.16015625 93.30078125 C-13.10109274 89.91577865 -18.38446571 86.70721234 -23.93359375 77.6953125 C-25 75 -25 75 -25 68 C-19.06 68 -13.12 68 -7 68 C-6.67 69.32 -6.34 70.64 -6 72 C-3.86430119 73.25783601 -3.86430119 73.25783601 -1 74 C0.216875 74.391875 1.43375 74.78375 2.6875 75.1875 C8.8318423 76.65099174 14.63551383 75.88668231 20.5 73.6875 C23.07108417 71.95201819 24.00081677 70.89763137 25 68 C19.49928537 61.88809486 13.58820325 61.59459728 5.8125 60.6875 C-5.83324585 59.15542682 -14.38358347 56.37242367 -22 47 C-26.13881937 41.3925673 -25.8516927 34.68251194 -25 28 C-22.75491621 21.68050488 -17.50955317 16.63925335 -12 13 C-8.40492207 11.39217491 -4.77442308 10.11706271 -1 9 C-0.67 6.03 -0.34 3.06 0 0 Z " fill="#000000" transform="translate(187,341)"/>
<path d="M0 0 C1.22396484 -0.020625 2.44792969 -0.04125 3.70898438 -0.0625 C5.48692383 -0.07023438 5.48692383 -0.07023438 7.30078125 -0.078125 C8.92173706 -0.09214355 8.92173706 -0.09214355 10.57543945 -0.10644531 C15.67390534 0.47751642 18.84561783 2.40811783 22.4375 6 C26.84615454 12.36805656 27.02834386 18.60820805 27 26.125 C27.01611328 26.97191406 27.03222656 27.81882813 27.04882812 28.69140625 C27.05360362 34.92819879 26.53160813 41.88380999 22.34155273 46.84301758 C15.4549894 52.89831125 8.5118735 52.61538743 -0.1875 52.625 C-1.34636719 52.64949219 -2.50523438 52.67398438 -3.69921875 52.69921875 C-10.47867084 52.72246259 -14.83923803 52.36819435 -20.3125 48.25 C-26.55476894 41.83902109 -26.65337779 34.85428287 -26.625 26.375 C-26.64111328 25.41980469 -26.65722656 24.46460938 -26.67382812 23.48046875 C-26.67850827 16.65682044 -26.14179298 10.63872136 -21.59375 5.19140625 C-21.0059375 4.73636719 -20.418125 4.28132812 -19.8125 3.8125 C-18.93078125 3.10287109 -18.93078125 3.10287109 -18.03125 2.37890625 C-12.80119231 -1.05629073 -5.99763222 0.02502924 0 0 Z M-8.3125 18.25 C-8.3125 23.53 -8.3125 28.81 -8.3125 34.25 C-2.7025 34.25 2.9075 34.25 8.6875 34.25 C8.6875 28.97 8.6875 23.69 8.6875 18.25 C3.0775 18.25 -2.5325 18.25 -8.3125 18.25 Z " fill="#000000" transform="translate(119.3125,212.75)"/>
<path d="M0 0 C1.10279297 -0.02449219 2.20558594 -0.04898438 3.34179688 -0.07421875 C11.3988467 -0.10307982 17.087105 0.86935224 23.0625 6.6875 C26.8330425 12.92339721 27.02678245 19.14729553 27 26.25 C27.01611328 27.09691406 27.03222656 27.94382813 27.04882812 28.81640625 C27.05396843 35.52964095 26.29210121 42.17290675 21.93359375 47.53125 C21.33675781 47.9746875 20.73992187 48.418125 20.125 48.875 C19.52558594 49.3390625 18.92617187 49.803125 18.30859375 50.28125 C13.54059553 53.49821265 8.05877156 52.63710436 2.47607422 52.67016602 C0.45860916 52.68732051 -1.55719093 52.73119871 -3.57421875 52.77539062 C-5.49427734 52.78795898 -5.49427734 52.78795898 -7.453125 52.80078125 C-8.62391602 52.81536377 -9.79470703 52.82994629 -11.00097656 52.8449707 C-16.05385353 52.12786748 -19.11454235 49.63951085 -22.5625 46 C-26.69325764 39.80386355 -26.64910293 33.70195583 -26.625 26.5 C-26.64111328 25.54480469 -26.65722656 24.58960938 -26.67382812 23.60546875 C-26.67816876 17.27682077 -26.38128382 10.84623815 -21.96655273 5.85253906 C-15.19636984 -0.13609469 -8.58708912 0.00993301 0 0 Z M-8.3125 18.375 C-8.3125 23.655 -8.3125 28.935 -8.3125 34.375 C-2.7025 34.375 2.9075 34.375 8.6875 34.375 C8.6875 29.095 8.6875 23.815 8.6875 18.375 C3.0775 18.375 -2.5325 18.375 -8.3125 18.375 Z " fill="#000000" transform="translate(119.3125,152.625)"/>
<path d="M0 0 C1.43279297 -0.02416992 1.43279297 -0.02416992 2.89453125 -0.04882812 C9.71348259 -0.05350505 15.7772492 0.46024173 21.18359375 5.06640625 C21.86615234 5.96166016 21.86615234 5.96166016 22.5625 6.875 C23.03558594 7.47441406 23.50867188 8.07382813 23.99609375 8.69140625 C27.28569155 13.41522316 26.38716718 18.95183751 26.42016602 24.52392578 C26.43732051 26.54139084 26.48119871 28.55719093 26.52539062 30.57421875 C26.53376953 31.85425781 26.54214844 33.13429687 26.55078125 34.453125 C26.56536377 35.62391602 26.57994629 36.79470703 26.5949707 38.00097656 C25.88120538 43.0303339 23.38774757 46.08388075 19.8125 49.5625 C13.79593923 53.4802605 7.65422329 53.62890245 0.6875 53.5625 C-0.12009766 53.57023437 -0.92769531 53.57796875 -1.75976562 53.5859375 C-8.51594315 53.56416094 -14.42272106 52.93192949 -20.1875 49.125 C-26.53407989 42.48323035 -26.3691857 35.65097713 -26.3125 26.875 C-26.33248047 25.78123047 -26.35246094 24.68746094 -26.37304688 23.56054688 C-26.36823395 15.56627674 -25.36025698 9.79775698 -19.5 3.9375 C-13.19398993 0.03377948 -7.20581109 -0.02411583 0 0 Z M-7.875 18.3125 C-7.875 23.9225 -7.875 29.5325 -7.875 35.3125 C-2.595 35.3125 2.685 35.3125 8.125 35.3125 C8.125 29.7025 8.125 24.0925 8.125 18.3125 C2.845 18.3125 -2.435 18.3125 -7.875 18.3125 Z " fill="#000000" transform="translate(178.875,92.6875)"/>
<path d="M0 0 C0.91201172 -0.020625 1.82402344 -0.04125 2.76367188 -0.0625 C9.99668162 -0.10397963 15.63586954 0.87650964 21.5 5.4375 C26.50934459 11.8780859 27.1705169 18.30826698 27.0625 26.1875 C27.07410156 27.02990234 27.08570313 27.87230469 27.09765625 28.74023438 C27.06466293 35.8832887 25.86621924 42.30232102 21.5625 48.125 C15.12708343 52.88161224 8.00637629 53.7397959 0.1875 53.625 C-0.99779297 53.64240234 -0.99779297 53.64240234 -2.20703125 53.66015625 C-9.19381782 53.62585124 -15.55565975 52.34759585 -21.1875 48.0625 C-26.2664385 41.34037551 -26.77019677 34.82432697 -26.625 26.6875 C-26.62822266 25.78064453 -26.63144531 24.87378906 -26.63476562 23.93945312 C-26.57365651 16.27859282 -25.88877312 9.98559521 -20.3125 4.25 C-14.03488492 -0.2570057 -7.43835066 0.04152603 0 0 Z M-8.3125 18.25 C-8.3125 23.86 -8.3125 29.47 -8.3125 35.25 C-2.7025 35.25 2.9075 35.25 8.6875 35.25 C8.6875 29.64 8.6875 24.03 8.6875 18.25 C3.0775 18.25 -2.5325 18.25 -8.3125 18.25 Z " fill="#000000" transform="translate(119.3125,92.75)"/>
<path d="M0 0 C1.43279297 -0.02416992 1.43279297 -0.02416992 2.89453125 -0.04882812 C9.22317923 -0.05316876 15.65376185 0.24371618 20.64746094 4.65844727 C26.63609469 11.42863016 26.49006699 18.03791088 26.5 26.625 C26.52449219 27.72779297 26.54898438 28.83058594 26.57421875 29.96679688 C26.60158946 37.60778583 25.73586958 43.4295786 20.4140625 49.15234375 C19.59035156 49.69568359 19.59035156 49.69568359 18.75 50.25 C18.20601562 50.63027344 17.66203125 51.01054687 17.1015625 51.40234375 C11.7460598 53.86841515 5.5960858 53.52592396 -0.1875 53.5625 C-0.99123047 53.583125 -1.79496094 53.60375 -2.62304688 53.625 C-9.23739609 53.66757023 -15.75830875 52.84763473 -21.03125 48.55859375 C-21.4746875 47.96175781 -21.918125 47.36492187 -22.375 46.75 C-22.8390625 46.15058594 -23.303125 45.55117187 -23.78125 44.93359375 C-26.99821265 40.16559553 -26.13710436 34.68377156 -26.17016602 29.10107422 C-26.18732051 27.08360916 -26.23119871 25.06780907 -26.27539062 23.05078125 C-26.28376953 21.77074219 -26.29214844 20.49070312 -26.30078125 19.171875 C-26.31536377 18.00108398 -26.32994629 16.83029297 -26.3449707 15.62402344 C-25.62786748 10.57114647 -23.13951085 7.51045765 -19.5 4.0625 C-13.30386355 -0.06825764 -7.20195583 -0.02410293 0 0 Z M-7.875 18.3125 C-7.875 23.9225 -7.875 29.5325 -7.875 35.3125 C-2.595 35.3125 2.685 35.3125 8.125 35.3125 C8.125 29.7025 8.125 24.0925 8.125 18.3125 C2.845 18.3125 -2.435 18.3125 -7.875 18.3125 Z " fill="#000000" transform="translate(59.875,92.6875)"/>
<path d="M0 0 C1.20720703 -0.03738281 2.41441406 -0.07476562 3.65820312 -0.11328125 C10.94693398 -0.18501288 16.41272301 0.14349041 21.8125 5.375 C27.04942419 11.62445153 26.44451077 18.44142754 26.375 26.3125 C26.41077148 28.1677832 26.41077148 28.1677832 26.44726562 30.06054688 C26.43713842 36.37654738 26.32547252 41.67019014 22.38598633 46.82421875 C16.76212673 52.36692724 10.83486841 52.86863105 3.16015625 52.87304688 C2.01417969 52.85306641 0.86820313 52.83308594 -0.3125 52.8125 C-1.46621094 52.81958984 -2.61992187 52.82667969 -3.80859375 52.83398438 C-10.69508649 52.78235554 -15.7436759 52.48671527 -21.05078125 47.69140625 C-21.52902344 47.11261719 -22.00726563 46.53382813 -22.5 45.9375 C-22.99113281 45.36128906 -23.48226562 44.78507812 -23.98828125 44.19140625 C-27.43848472 38.96552803 -26.41019931 31.99250236 -26.4375 26 C-26.458125 24.8759375 -26.47875 23.751875 -26.5 22.59375 C-26.53247681 15.7249051 -26.32380448 10.77503917 -21.46875 5.51171875 C-20.8809375 5.03347656 -20.293125 4.55523437 -19.6875 4.0625 C-19.0996875 3.57136719 -18.511875 3.08023438 -17.90625 2.57421875 C-12.81846679 -0.97566635 -5.92607117 0.06850949 0 0 Z M-8.1875 18.375 C-8.1875 23.655 -8.1875 28.935 -8.1875 34.375 C-2.9075 34.375 2.3725 34.375 7.8125 34.375 C7.8125 29.095 7.8125 23.815 7.8125 18.375 C2.5325 18.375 -2.7475 18.375 -8.1875 18.375 Z " fill="#000000" transform="translate(179.1875,212.625)"/>
<path d="M0 0 C1.22396484 -0.020625 2.44792969 -0.04125 3.70898438 -0.0625 C5.48692383 -0.07023438 5.48692383 -0.07023438 7.30078125 -0.078125 C8.92173706 -0.09214355 8.92173706 -0.09214355 10.57543945 -0.10644531 C15.78115791 0.48980078 19.68040845 2.66998894 23 6.6875 C23.73669922 7.55181641 23.73669922 7.55181641 24.48828125 8.43359375 C27.83600428 13.50424916 26.94761524 20.17481479 27 26 C27.02900391 27.05960938 27.05800781 28.11921875 27.08789062 29.2109375 C27.14648343 36.47644477 26.37963524 42.38346667 21.20410156 47.8034668 C15.00028203 53.24092086 8.83047692 52.49828067 1 52.5625 C-0.73926758 52.60600586 -0.73926758 52.60600586 -2.51367188 52.65039062 C-9.62416966 52.70294121 -14.29549325 52.12919964 -20.3125 48.25 C-26.51574839 41.72863631 -25.52821955 34.96904601 -25.5625 26.4375 C-25.583125 25.16583984 -25.60375 23.89417969 -25.625 22.58398438 C-25.63015625 21.35357422 -25.6353125 20.12316406 -25.640625 18.85546875 C-25.6499707 17.73293701 -25.65931641 16.61040527 -25.66894531 15.45385742 C-25.19184169 11.16548016 -23.73092265 7.80509358 -20.8125 4.60546875 C-14.08967363 -0.62923199 -8.23209496 0.03435407 0 0 Z M-7.3125 18.25 C-7.3125 23.53 -7.3125 28.81 -7.3125 34.25 C-2.0325 34.25 3.2475 34.25 8.6875 34.25 C8.6875 28.97 8.6875 23.69 8.6875 18.25 C3.4075 18.25 -1.8725 18.25 -7.3125 18.25 Z " fill="#000000" transform="translate(59.3125,212.75)"/>
<path d="M0 0 C1.10730469 -0.02900391 2.21460938 -0.05800781 3.35546875 -0.08789062 C9.92815533 -0.13869022 15.4969138 0.02889396 20.75 4.3125 C25.12608688 8.62278616 26.06386557 12.9448779 26.37890625 18.97265625 C26.38286276 21.44020028 26.36006763 23.90791133 26.3125 26.375 C26.32345703 27.61572266 26.33441406 28.85644531 26.34570312 30.13476562 C26.29029584 37.03851277 25.99594005 41.7631188 21.75 47.3125 C15.17448093 53.40688352 8.60832102 52.59240235 0.0625 52.6875 C-1.19240234 52.72488281 -2.44730469 52.76226562 -3.74023438 52.80078125 C-10.13396876 52.86138537 -15.48692986 52.90817731 -20.70825195 48.89501953 C-26.07507472 43.38627129 -26.7606228 37.6084237 -26.796875 30.11328125 C-26.78140625 29.02402344 -26.7659375 27.93476563 -26.75 26.8125 C-26.76546875 25.72324219 -26.7809375 24.63398438 -26.796875 23.51171875 C-26.76160304 16.21924082 -25.91575334 10.24477488 -20.80273438 4.76000977 C-14.59709841 -0.77530043 -7.89763485 0.06800489 0 0 Z M-8.25 18.3125 C-8.25 23.5925 -8.25 28.8725 -8.25 34.3125 C-2.97 34.3125 2.31 34.3125 7.75 34.3125 C7.75 29.0325 7.75 23.7525 7.75 18.3125 C2.47 18.3125 -2.81 18.3125 -8.25 18.3125 Z " fill="#000000" transform="translate(179.25,152.6875)"/>
<path d="M0 0 C1.08925781 -0.01546875 2.17851563 -0.0309375 3.30078125 -0.046875 C10.16053001 -0.01369605 14.6719374 0.82872623 20.5 4.5 C26.90052138 11.06895615 26.83867041 17.67595476 26.8125 26.375 C26.82861328 27.43847656 26.84472656 28.50195312 26.86132812 29.59765625 C26.86607744 37.24405596 26.20698585 42.37655479 21.0625 48.3125 C14.76422956 53.68907232 8.61620909 52.83270023 0.625 52.8125 C-1.27572266 52.83666992 -1.27572266 52.83666992 -3.21484375 52.86132812 C-5.05369141 52.86229492 -5.05369141 52.86229492 -6.9296875 52.86328125 C-8.04585449 52.86626221 -9.16202148 52.86924316 -10.31201172 52.87231445 C-14.58453297 52.37334103 -17.95408755 50.91004841 -21.14453125 48 C-26.4262981 41.21672752 -25.78245555 35.12888055 -25.875 26.8125 C-25.93107422 24.93014648 -25.93107422 24.93014648 -25.98828125 23.00976562 C-26.04888537 16.61603124 -26.09567731 11.26307014 -22.08251953 6.04174805 C-15.71093577 -0.16568044 -8.51132871 -0.12087094 0 0 Z M-7.5 18.5 C-7.5 23.78 -7.5 29.06 -7.5 34.5 C-2.22 34.5 3.06 34.5 8.5 34.5 C8.5 29.22 8.5 23.94 8.5 18.5 C3.22 18.5 -2.06 18.5 -7.5 18.5 Z " fill="#000000" transform="translate(59.5,152.5)"/>
<path d="M0 0 C33.99 0 67.98 0 103 0 C103 5.94 103 11.88 103 18 C69.01 18 35.02 18 0 18 C0 12.06 0 6.12 0 0 Z " fill="#000000" transform="translate(307,281)"/>
<path d="M0 0 C33.99 0 67.98 0 103 0 C103 5.94 103 11.88 103 18 C69.01 18 35.02 18 0 18 C0 12.06 0 6.12 0 0 Z " fill="#000000" transform="translate(307,247)"/>
<path d="M0 0 C33.99 0 67.98 0 103 0 C103 5.94 103 11.88 103 18 C69.01 18 35.02 18 0 18 C0 12.06 0 6.12 0 0 Z " fill="#000000" transform="translate(307,213)"/>
<path d="M0 0 C33.99 0 67.98 0 103 0 C103 5.94 103 11.88 103 18 C69.01 18 35.02 18 0 18 C0 12.06 0 6.12 0 0 Z " fill="#000000" transform="translate(307,179)"/>
<path d="M0 0 C5.94 0 11.88 0 18 0 C18 5.94 18 11.88 18 18 C12.06 18 6.12 18 0 18 C0 12.06 0 6.12 0 0 Z " fill="#000000" transform="translate(273,281)"/>
<path d="M0 0 C5.94 0 11.88 0 18 0 C18 5.94 18 11.88 18 18 C12.06 18 6.12 18 0 18 C0 12.06 0 6.12 0 0 Z " fill="#000000" transform="translate(273,247)"/>
<path d="M0 0 C5.94 0 11.88 0 18 0 C18 5.94 18 11.88 18 18 C12.06 18 6.12 18 0 18 C0 12.06 0 6.12 0 0 Z " fill="#000000" transform="translate(273,213)"/>
<path d="M0 0 C5.94 0 11.88 0 18 0 C18 5.94 18 11.88 18 18 C12.06 18 6.12 18 0 18 C0 12.06 0 6.12 0 0 Z " fill="#000000" transform="translate(273,179)"/>
</svg>
