<?xml version="1.0" encoding="UTF-8"?>
<svg version="1.1" xmlns="http://www.w3.org/2000/svg" width="512" height="512">
<path d="M0 0 C3.4375 0.75 3.4375 0.75 5.4375 2.75 C5.66455078 5.45556641 5.66455078 5.45556641 5.6328125 8.8515625 C5.62314453 10.66914062 5.62314453 10.66914062 5.61328125 12.5234375 C5.58814453 14.42996094 5.58814453 14.42996094 5.5625 16.375 C5.55347656 17.65375 5.54445312 18.9325 5.53515625 20.25 C5.51152303 23.41685167 5.47857629 26.58333424 5.4375 29.75 C6.38257416 29.73667633 6.38257416 29.73667633 7.34674072 29.7230835 C13.90017633 29.63463729 20.4534426 29.57427694 27.00732422 29.53027344 C29.45368333 29.51014948 31.89999429 29.4828474 34.34619141 29.44824219 C37.86112341 29.39976037 41.37541984 29.37703872 44.890625 29.359375 C45.9855426 29.33872986 47.08046021 29.31808472 48.20855713 29.29681396 C49.22931335 29.29651184 50.25006958 29.29620972 51.30175781 29.29589844 C52.19888489 29.28701599 53.09601196 29.27813354 54.02032471 29.26898193 C57.28025761 29.91770883 58.45141416 31.12323215 60.4375 33.75 C60.91851807 35.93939209 60.91851807 35.93939209 60.89160156 38.33496094 C60.89129944 39.23559265 60.89099731 40.13622437 60.89068604 41.06414795 C60.87004089 42.02782288 60.84939575 42.9914978 60.828125 43.984375 C60.82246521 44.97753723 60.81680542 45.97069946 60.81097412 46.99395752 C60.78860026 50.16313059 60.73840106 53.3311692 60.6875 56.5 C60.66743635 58.64972324 60.64918534 60.79946423 60.6328125 62.94921875 C60.58873239 68.21653229 60.52181033 73.48318509 60.4375 78.75 C61.28981201 78.73428955 62.14212402 78.7185791 63.02026367 78.70239258 C66.19781226 78.65111038 69.37514913 78.61357518 72.55297852 78.58520508 C73.92544517 78.57016568 75.29786414 78.54972867 76.67016602 78.52368164 C78.64838656 78.48708779 80.62696514 78.47183302 82.60546875 78.45703125 C83.79422607 78.4413208 84.9829834 78.42561035 86.20776367 78.40942383 C89.77123502 78.78519241 91.6280826 79.55404862 94.4375 81.75 C95.64827701 85.38233102 95.56194164 88.70121987 95.53515625 92.48046875 C95.53303383 93.60609978 95.53303383 93.60609978 95.53086853 94.75447083 C95.5252756 97.1488546 95.51272444 99.54314453 95.5 101.9375 C95.49498408 103.56184761 95.49042134 105.18619668 95.48632812 106.81054688 C95.47530848 110.79040069 95.45804873 114.77018444 95.4375 118.75 C96.46738037 118.73622314 97.49726074 118.72244629 98.55834961 118.70825195 C99.92301176 118.69710946 101.28767668 118.68630364 102.65234375 118.67578125 C103.32954468 118.6658313 104.00674561 118.65588135 104.70446777 118.64562988 C111.9321051 118.60385163 117.58872318 120.08130893 123.0658083 125.14440346 C129.84586227 133.08061185 130.16336038 141.64379601 130.09692383 151.65478516 C130.10539166 153.13408756 130.11604244 154.61337882 130.12869263 156.09265137 C130.15667956 160.07969285 130.15439595 164.06619341 130.14639878 168.05330324 C130.14326032 172.23071394 130.16834709 176.40795636 130.19035339 180.58529663 C130.22771309 188.48275514 130.23993659 196.38004149 130.2429778 204.27757967 C130.24767742 213.27409536 130.28062965 222.27043953 130.31587565 231.26687932 C130.38770351 249.7612364 130.42430984 268.25551276 130.4375 286.75 C131.19313232 285.78288086 131.94876465 284.81576172 132.72729492 283.81933594 C133.72829214 282.54096808 134.72935346 281.2626504 135.73046875 279.984375 C136.22736206 279.34806152 136.72425537 278.71174805 137.23620605 278.05615234 C148.36780309 263.85424754 162.2660741 255.30323917 178.4375 247.75 C179.0975 247.42 179.7575 247.09 180.4375 246.75 C179.79683594 246.193125 179.15617187 245.63625 178.49609375 245.0625 C164.04340876 232.31139789 156.26766316 219.75526606 154.15625 200.13671875 C153.46065277 182.4279727 160.87672051 167.22048053 172.53125 154.45703125 C183.39732434 143.97613492 198.0124163 138.92130614 212.9375 138.375 C228.44786904 138.94272947 244.26696816 144.70474515 255.4375 155.75 C268.58043211 170.84163703 272.52497254 185.79979444 271.63720703 205.36035156 C271.17941239 210.83821706 269.55252328 215.71456378 267.4375 220.75 C267.11007812 221.60464844 266.78265625 222.45929688 266.4453125 223.33984375 C262.25022329 233.03141846 254.33012057 241.22321667 245.4375 246.75 C246.20658691 247.08825806 246.20658691 247.08825806 246.99121094 247.43334961 C257.79573707 252.23442039 267.32709203 257.12303017 276.4375 264.75 C277.035625 265.21019531 277.63375 265.67039062 278.25 266.14453125 C296.24628203 280.15726127 307.31495687 304.65487405 310.4375 326.75 C310.70263519 330.77854971 310.72155844 334.79107781 310.7121582 338.82739258 C310.7198246 340.55635773 310.7198246 340.55635773 310.72764587 342.32025146 C310.74144247 346.09506552 310.74059358 349.86969513 310.73828125 353.64453125 C310.74217165 356.28244595 310.74650702 358.92036004 310.75126648 361.55827332 C310.75944538 367.06970845 310.75859215 372.58109222 310.75317383 378.0925293 C310.74711701 384.45303826 310.75950017 390.81332697 310.7807439 397.17379838 C310.80049814 403.31569077 310.80353282 409.45748021 310.80000877 415.59940147 C310.80052204 418.20411384 310.8057608 420.80882973 310.81582069 423.41352272 C310.82814745 427.04904904 310.8214171 430.68406208 310.80981445 434.31958008 C310.81745819 435.39346481 310.82510193 436.46734955 310.83297729 437.57377625 C310.78782692 443.96970101 310.24619878 448.63513974 305.7890625 453.578125 C305.21929687 454.04734375 304.64953125 454.5165625 304.0625 455 C303.21558594 455.71929687 303.21558594 455.71929687 302.3515625 456.453125 C297.74410772 459.57491069 293.73217496 460.00121416 288.22728634 460.00726891 C287.50853343 460.01077498 286.78978053 460.01428105 286.04924724 460.01789337 C283.63423069 460.02721749 281.21945475 460.02228151 278.8044281 460.01742554 C277.05817104 460.02116126 275.31191565 460.02576247 273.56566292 460.03115618 C268.76179728 460.0434107 263.95800114 460.04312284 259.15412343 460.04076743 C253.97547968 460.0403599 248.79685841 460.05139219 243.6182251 460.06088257 C233.47147068 460.0775058 223.3247395 460.08299267 213.17797261 460.08410732 C204.93393803 460.08505695 196.68991113 460.08916294 188.44587898 460.09550858 C165.08790397 460.11312277 141.72994734 460.12234689 118.37196564 460.12084763 C116.48253381 460.12072776 116.48253381 460.12072776 114.55493164 460.12060547 C112.66320169 460.12048283 112.66320169 460.12048283 110.73325498 460.12035771 C90.27938706 460.11954423 69.82559269 460.13869695 49.37174606 460.1668822 C28.38497289 460.19557444 7.39823563 460.20942459 -13.58855766 460.20769465 C-25.37724693 460.20702959 -37.16585907 460.21257265 -48.95453072 460.23405075 C-58.98834881 460.2522142 -69.02205479 460.25664966 -79.05588216 460.2430319 C-84.17839 460.2364784 -89.30068242 460.23647064 -94.42317009 460.2537384 C-99.10796655 460.26936889 -103.79237499 460.26670905 -108.4771614 460.24917014 C-110.17626602 460.24607804 -111.87539889 460.24981489 -113.57447023 460.26089029 C-115.87616591 460.27490598 -118.17648047 460.26451028 -120.47812748 460.24777794 C-121.75887183 460.24821267 -123.03961619 460.24864741 -124.35917097 460.24909532 C-127.5625 459.75 -127.5625 459.75 -129.97363842 458.05927634 C-131.91333277 455.24009415 -132.06444116 453.70874135 -132.06865788 450.30380058 C-132.07970556 449.19080019 -132.09075325 448.07779979 -132.10213572 446.93107212 C-132.09389495 445.70833217 -132.08565418 444.48559223 -132.0771637 443.22579956 C-132.08410922 441.92678432 -132.09105475 440.62776907 -132.09821075 439.28938973 C-132.11688425 435.68050066 -132.1105171 432.07202063 -132.10005772 428.46311426 C-132.09307857 424.57198641 -132.10905421 420.68094369 -132.12205505 416.7898407 C-132.14372518 409.16421856 -132.14355993 401.53874549 -132.13542951 393.91310267 C-132.12913356 387.71332581 -132.13026284 381.51359247 -132.13670158 375.31381607 C-132.13760324 374.43190502 -132.13850489 373.54999398 -132.13943387 372.64135835 C-132.14128507 370.84977879 -132.14314763 369.05819924 -132.14502143 367.2666197 C-132.16161173 350.45436032 -132.15287172 333.64218479 -132.13603585 316.82993044 C-132.12135217 301.45623359 -132.13594631 286.08273241 -132.16480602 270.70906077 C-132.19421966 254.92259127 -132.20516564 239.13621201 -132.19562382 223.34971631 C-132.19460127 221.56283706 -132.19360666 219.7759578 -132.1926403 217.98907852 C-132.19216391 217.10991442 -132.19168752 216.23075032 -132.1911967 215.32494488 C-132.18903438 209.13744137 -132.19882746 202.95002344 -132.21341133 196.76253891 C-132.23095345 189.21453888 -132.23079113 181.66678791 -132.20805968 174.11879759 C-132.19693188 170.26937191 -132.19372096 166.42038468 -132.21236038 162.57097816 C-132.23233293 158.39232694 -132.21334686 154.2147397 -132.19068909 150.03610229 C-132.20252482 148.82674668 -132.21436054 147.61739107 -132.22655493 146.37138832 C-132.14381983 138.85420633 -130.95913642 132.9763828 -126.5625 126.75 C-120.73758273 121.15225352 -114.91379354 118.493722 -106.703125 118.57421875 C-106.03796875 118.59097656 -105.3728125 118.60773438 -104.6875 118.625 C-103.99914062 118.63402344 -103.31078125 118.64304687 -102.6015625 118.65234375 C-100.92172162 118.67567487 -99.24206254 118.71153674 -97.5625 118.75 C-97.57821045 117.74622314 -97.5939209 116.74244629 -97.61010742 115.70825195 C-97.66455114 111.97168045 -97.69890226 108.23514379 -97.72729492 104.49829102 C-97.74234876 102.88332211 -97.76279648 101.26839387 -97.78881836 99.65356445 C-97.82535286 97.32753445 -97.84226015 95.00204659 -97.85546875 92.67578125 C-97.87095261 91.95787918 -97.88643646 91.23997711 -97.90238953 90.50032043 C-97.9038617 86.08022693 -97.36454755 83.22007995 -94.5625 79.75 C-91.14498347 78.61082782 -88.52762063 78.63661519 -84.92578125 78.65234375 C-82.97768555 78.65717773 -82.97768555 78.65717773 -80.99023438 78.66210938 C-79.61848892 78.67046469 -78.24674413 78.67892963 -76.875 78.6875 C-75.49153805 78.69251665 -74.10807437 78.69707927 -72.72460938 78.70117188 C-69.33719605 78.71297471 -65.94986967 78.72943981 -62.5625 78.75 C-62.57138245 78.19511902 -62.58026489 77.64023804 -62.5894165 77.06854248 C-62.67790593 71.29368389 -62.73824053 65.51901784 -62.78222656 59.74365234 C-62.80234276 57.58829933 -62.82963925 55.43300089 -62.86425781 53.27783203 C-62.91277486 50.17987605 -62.93546873 47.08264154 -62.953125 43.984375 C-62.97377014 43.02070007 -62.99441528 42.05702515 -63.01568604 41.06414795 C-63.01613922 39.71320038 -63.01613922 39.71320038 -63.01660156 38.33496094 C-63.02548401 37.54442322 -63.03436646 36.7538855 -63.04351807 35.93939209 C-62.36106957 32.83317333 -61.06713235 31.65768651 -58.5625 29.75 C-56.18328857 29.26898193 -56.18328857 29.26898193 -53.51855469 29.29589844 C-52.51781921 29.29620056 -51.51708374 29.29650269 -50.48602295 29.29681396 C-49.41297913 29.31745911 -48.3399353 29.33810425 -47.234375 29.359375 C-45.57816132 29.36786469 -45.57816132 29.36786469 -43.88848877 29.37652588 C-40.36271774 29.39891232 -36.83796376 29.44911504 -33.3125 29.5 C-30.92188968 29.52006197 -28.53126342 29.53831326 -26.140625 29.5546875 C-20.28090313 29.59878457 -14.42177422 29.66572002 -8.5625 29.75 C-8.57297363 29.0794458 -8.58344727 28.4088916 -8.59423828 27.71801758 C-8.63593171 24.66621684 -8.66186853 21.61447616 -8.6875 18.5625 C-8.70425781 17.50740234 -8.72101563 16.45230469 -8.73828125 15.36523438 C-8.74472656 14.34365234 -8.75117188 13.32207031 -8.7578125 12.26953125 C-8.76828613 11.33214111 -8.77875977 10.39475098 -8.78955078 9.42895508 C-8.53875542 6.46983949 -7.92181531 4.38702652 -6.5625 1.75 C-3.5625 -0.25 -3.5625 -0.25 0 0 Z M-48.5625 43.75 C-48.5625 55.3 -48.5625 66.85 -48.5625 78.75 C-17.2125 78.75 14.1375 78.75 46.4375 78.75 C46.4375 67.2 46.4375 55.65 46.4375 43.75 C15.0875 43.75 -16.2625 43.75 -48.5625 43.75 Z M-83.5625 92.75 C-83.5625 101.33 -83.5625 109.91 -83.5625 118.75 C-29.1125 118.75 25.3375 118.75 81.4375 118.75 C81.4375 110.17 81.4375 101.59 81.4375 92.75 C26.9875 92.75 -27.4625 92.75 -83.5625 92.75 Z M-116.5625 137.75 C-117.8185902 140.26218039 -117.68669768 141.96247572 -117.68554783 144.77501106 C-117.68753888 145.84491221 -117.68952993 146.91481335 -117.69158131 148.01713574 C-117.68866847 149.20194023 -117.68575563 150.38674473 -117.68275452 151.60745239 C-117.68360894 152.85872826 -117.68446337 154.11000414 -117.68534368 155.39919746 C-117.68758808 158.88357181 -117.6835681 162.36791564 -117.67856562 165.8522861 C-117.67426053 169.60552392 -117.67570759 173.35875992 -117.6764679 177.11199951 C-117.67699309 183.61847468 -117.67384673 190.12493985 -117.66823006 196.63141251 C-117.66011449 206.03876259 -117.65749978 215.44610781 -117.65624207 224.85346101 C-117.65405164 240.11503795 -117.64739179 255.37660955 -117.63793945 270.63818359 C-117.62876511 285.46630832 -117.62168438 300.2944316 -117.61743164 315.12255859 C-117.61716892 316.03605379 -117.61690619 316.94954899 -117.61663551 317.89072587 C-117.6153305 322.47331039 -117.61406679 327.05589493 -117.61282361 331.63847947 C-117.60245127 369.67565772 -117.58401312 407.7128261 -117.5625 445.75 C-78.6225 445.75 -39.6825 445.75 0.4375 445.75 C0.64762698 416.59519329 0.64762698 416.59519329 0.82543945 387.44018555 C0.87536621 381.80432129 0.87536621 381.80432129 0.9025116 379.16682434 C0.91867258 377.32282928 0.92895326 375.47877704 0.93461609 373.63471985 C0.94432644 370.84300111 0.97263048 368.05203195 1.00512695 365.26049805 C1.00370099 364.43750812 1.00227503 363.61451818 1.00080585 362.76658916 C1.09364705 357.1984705 1.09364705 357.1984705 2.74606609 355.04330158 C5.54192638 352.9055352 8.78311797 353.26798216 12.16796875 353.23828125 C12.91838943 353.22033005 13.66881012 353.20237885 14.44197083 353.18388367 C16.8362569 353.12974813 19.23034331 353.09587584 21.625 353.0625 C23.24937677 353.02932964 24.87372717 352.99484024 26.49804688 352.95898438 C30.47772056 352.8740203 34.4573347 352.80722535 38.4375 352.75 C38.95699219 351.58082031 39.47648438 350.41164063 40.01171875 349.20703125 C40.71555727 347.6585865 41.42001736 346.11042418 42.125 344.5625 C42.63450195 343.40911133 42.63450195 343.40911133 43.15429688 342.23242188 C46.39284724 335.18025145 50.09974111 330.76692197 57.4375 327.75 C60.38710055 327.32314827 63.29657838 327.30544159 66.2734375 327.31640625 C67.53071152 327.30854347 67.53071152 327.30854347 68.81338501 327.30052185 C70.58000587 327.29412202 72.34666945 327.29541216 74.11328125 327.30395508 C76.79765818 327.31245302 79.47989603 327.28369657 82.1640625 327.25195312 C83.8880202 327.25034041 85.61198163 327.25091998 87.3359375 327.25390625 C88.12890228 327.24267227 88.92186707 327.23143829 89.73886108 327.21986389 C95.3865488 327.28949845 99.7129192 328.59632074 104.4375 331.75 C106.390625 334.046875 106.390625 334.046875 107.6875 336.5 C108.39519531 337.80324219 108.39519531 337.80324219 109.1171875 339.1328125 C109.55289063 339.99648438 109.98859375 340.86015625 110.4375 341.75 C110.85257813 342.55179688 111.26765625 343.35359375 111.6953125 344.1796875 C112.63395567 346.02415414 113.53968945 347.88531654 114.4375 349.75 C114.7675 349.75 115.0975 349.75 115.4375 349.75 C115.55425693 322.47307839 115.64245086 295.19619419 115.69656086 267.9190731 C115.7223519 255.25406928 115.75751991 242.58922063 115.81469727 229.92431641 C115.86450433 218.88669375 115.89678446 207.84918347 115.90794247 196.81145155 C115.91446572 190.96600092 115.92981644 185.12087181 115.96615028 179.27552414 C116.00006682 173.77454597 116.01056157 168.27402202 116.00303841 162.77294922 C116.00441488 160.7532975 116.01437299 158.73363072 116.03352737 156.71406937 C116.05839753 153.95680052 116.05242732 151.20124758 116.03877258 148.44393921 C116.05333679 147.64431712 116.067901 146.84469502 116.08290654 146.02084196 C116.00598648 140.27643694 114.56028131 137.76396575 110.4375 133.75 C107.159205 132.1108525 103.52689702 132.59822967 99.92327881 132.59609985 C98.58561868 132.58952647 98.58561868 132.58952647 97.22093511 132.5828203 C94.21467081 132.56940126 91.20843585 132.56324648 88.20214844 132.55712891 C86.05397915 132.54923041 83.9058112 132.54096162 81.75764465 132.53234863 C74.68740105 132.50610011 67.61715143 132.49081852 60.546875 132.4765625 C58.11575568 132.47120405 55.68463639 132.46582655 53.25351715 132.46043015 C43.14299915 132.43879759 33.03248277 132.42005972 22.92194748 132.40880775 C8.41776127 132.39256162 -6.08615732 132.35937173 -20.59024262 132.30240691 C-30.78052601 132.26374498 -40.9707377 132.24417951 -51.16109252 132.23888719 C-57.25129752 132.23522872 -63.34121728 132.22315442 -69.43134308 132.19078445 C-75.16053592 132.16076993 -80.88926993 132.15436856 -86.61852455 132.16616821 C-88.72202321 132.1663895 -90.82554276 132.15803924 -92.92896843 132.14051437 C-95.79998247 132.11789523 -98.66932257 132.12608421 -101.54034424 132.14199829 C-102.37362063 132.1281162 -103.20689702 132.11423412 -104.0654242 132.09993136 C-109.91267588 132.17984175 -112.48721919 133.53056247 -116.5625 137.75 Z M178.66015625 168.8984375 C171.50846108 178.4844306 167.34098879 189.66807095 168.4375 201.75 C170.67787066 215.32512731 176.58354523 226.36354082 187.8203125 234.46875 C199.2602385 241.78456475 211.4418131 243.62640403 224.74609375 241.12890625 C237.04129396 237.53148096 246.23168913 229.55731525 252.6796875 218.6484375 C258.16008545 208.28768516 259.30848456 196.3865078 256.52734375 185.03515625 C252.07944899 172.77841731 244.08327002 163.0757772 232.5 156.875 C213.99812071 148.36871804 191.78507856 153.03314679 178.66015625 168.8984375 Z M159.4375 275.75 C158.4475 276.52730469 158.4475 276.52730469 157.4375 277.3203125 C141.66461406 290.07416949 132.56857911 310.31750453 129.6875 330.0625 C129.20337458 337.61114545 129.36410471 345.19028548 129.4375 352.75 C130.02764893 352.76458252 130.61779785 352.77916504 131.22583008 352.79418945 C133.90121229 352.86868844 136.57534892 352.96533995 139.25 353.0625 C140.17876953 353.08505859 141.10753906 353.10761719 142.06445312 353.13085938 C143.4034668 353.1840332 143.4034668 353.1840332 144.76953125 353.23828125 C146.00280151 353.27755737 146.00280151 353.27755737 147.26098633 353.31762695 C149.95210948 353.85222921 150.72296076 354.64313419 152.4375 356.75 C152.74734132 359.65591101 152.87495448 362.35193676 152.86987305 365.26049805 C152.8800647 366.12900391 152.89025635 366.99750977 152.90075684 367.89233398 C152.93097195 370.76552713 152.94016575 373.63838737 152.94921875 376.51171875 C152.96605912 378.5028444 152.98420849 380.49395937 153.00361633 382.48506165 C153.0511921 387.72767807 153.08095245 392.97025124 153.10705566 398.2130127 C153.13682298 403.56201728 153.18336642 408.91087267 153.22851562 414.25976562 C153.31463494 424.7564325 153.38194183 435.25313001 153.4375 445.75 C171.49174286 445.82005488 189.54595048 445.87297087 207.60029984 445.90543652 C215.98309114 445.92091098 224.36579803 445.94201152 232.74853516 445.97631836 C240.05421242 446.00620304 247.35982856 446.02557079 254.66556525 446.03226548 C258.5345693 446.03617934 262.40339846 446.04538934 266.2723465 446.06719017 C269.91338574 446.0875407 273.55417792 446.09383677 277.19526863 446.08932304 C279.16977716 446.0905429 281.14425873 446.10669255 283.11869812 446.1232605 C284.29376419 446.11913651 285.46883026 446.11501251 286.67950439 446.11076355 C288.21152433 446.11491162 288.21152433 446.11491162 289.77449417 446.11914349 C292.90406253 445.68532552 294.26766789 445.03996003 296.4375 442.75 C297.03900793 440.59687029 297.03900793 440.59687029 296.9521637 438.15124512 C296.97125038 436.73480461 296.97125038 436.73480461 296.99072266 435.28974915 C296.98419678 434.2550499 296.9776709 433.22035065 296.97094727 432.15429688 C296.97956284 431.06271774 296.98817841 429.97113861 296.99705505 428.84648132 C297.01983814 425.22033238 297.01294477 421.59494987 297.00390625 417.96875 C297.00914222 415.44022391 297.0154186 412.91169977 297.02268982 410.38317871 C297.03312124 405.06670991 297.02883189 399.75051847 297.01391602 394.43408203 C296.9971254 388.33625041 297.01264005 382.23914151 297.0451389 376.14138937 C297.07537478 370.23978238 297.07694908 364.3384484 297.0676403 358.43678284 C297.06682728 355.94608121 297.07356466 353.45536393 297.08841133 350.96470642 C297.21792795 325.26671629 293.20315295 303.31512056 275.4375 283.75 C274.27927734 282.46996094 274.27927734 282.46996094 273.09765625 281.1640625 C259.98161616 267.3642478 241.57350837 257.80300696 222.4375 256.75 C223.10331795 263.92026846 224.38303973 270.83536513 225.87768555 277.87573242 C226.12488342 279.05734451 226.3720813 280.2389566 226.62677002 281.45637512 C227.16092751 284.00862777 227.69681577 286.56051868 228.23425865 289.11208153 C229.08463358 293.14989327 229.92612835 297.18952405 230.76582336 301.22956848 C233.15320968 312.71135174 235.54522499 324.19211999 237.9621582 335.66772461 C239.2998135 342.01927153 240.62639292 348.37302436 241.94052345 354.72948152 C242.63517115 358.08708811 243.33551989 361.44327788 244.0496273 364.79680443 C244.8425064 368.53254921 245.61615821 372.27179881 246.38549805 376.01245117 C246.62488602 377.11753021 246.86427399 378.22260925 247.11091614 379.36117554 C249.00188268 388.73319589 249.00188268 388.73319589 246.4375 393.75 C245.05224609 395.51342773 245.05224609 395.51342773 243.4609375 396.93359375 C242.87642822 397.46525146 242.29191895 397.99690918 241.68969727 398.54467773 C241.07022217 399.08680908 240.45074707 399.62894043 239.8125 400.1875 C239.17948975 400.75734619 238.54647949 401.32719238 237.89428711 401.91430664 C236.08533425 403.53789223 234.26373556 405.14590982 232.4375 406.75 C231.62667969 407.471875 230.81585938 408.19375 229.98046875 408.9375 C228.71900517 410.05216604 227.45018574 411.15860154 226.171875 412.25390625 C224.95548642 413.30317838 223.75900064 414.37575886 222.578125 415.46484375 C220.11129995 417.70501607 217.98814893 419.50220798 214.9375 420.875 C208.06982188 420.53161609 202.65678809 414.45439232 198 409.9375 C196.68430689 408.6867494 195.36790737 407.43674145 194.05078125 406.1875 C193.42768066 405.59324219 192.80458008 404.99898437 192.16259766 404.38671875 C190.03502508 402.36814437 187.87768235 400.38794068 185.6875 398.4375 C185.11515625 397.92574219 184.5428125 397.41398438 183.953125 396.88671875 C182.31541467 395.5336228 182.31541467 395.5336228 179.4375 394.75 C178.10827672 387.05668473 179.07073731 380.79472126 180.71069336 373.20947266 C180.96414017 371.9840274 181.21758698 370.75858215 181.47871399 369.4960022 C182.17144004 366.1595114 182.87615188 362.82598807 183.58626246 359.49318361 C184.32789069 355.99737692 185.05333876 352.49821662 185.78041077 348.99935913 C187.158001 342.38170468 188.54903307 335.76695636 189.94542843 329.15324724 C191.9967466 319.43497913 194.02930713 309.71278492 196.05995274 299.99017906 C196.20890474 299.27704257 196.35785674 298.56390607 196.51132244 297.82915938 C196.80824261 296.40757553 197.10512644 294.98598408 197.40197283 293.56438482 C198.27160654 289.40209276 199.14571344 285.24077162 200.02373683 281.08024144 C200.69612102 277.8919666 201.36509421 274.70297498 202.03491211 271.51416016 C202.27960236 270.36089233 202.5242926 269.20762451 202.77639771 268.01940918 C202.99661087 266.96810822 203.21682404 265.91680725 203.44371033 264.83364868 C203.63674209 263.9189361 203.82977385 263.00422352 204.02865505 262.06179237 C204.52457475 259.64891814 204.52457475 259.64891814 204.4375 256.75 C188.48211615 256.02885271 171.09373864 265.55079119 159.4375 275.75 Z M212.4375 285.75 C209.80108306 298.30849522 207.17516332 310.86913476 204.56265926 323.43262768 C203.34926649 329.26615784 202.13225719 335.0988846 200.90698242 340.92993164 C199.72487897 346.55618776 198.55227652 352.18434729 197.38626289 357.81395912 C196.93951489 359.96247338 196.48933558 362.11027708 196.0356884 364.2573452 C195.40135784 367.26245215 194.77922398 370.26984365 194.15991211 373.27807617 C193.96930206 374.16712143 193.77869202 375.05616669 193.58230591 375.97215271 C192.34315589 381.88422322 192.34315589 381.88422322 193.4375 387.75 C195.66584879 390.28242746 195.66584879 390.28242746 198.5 392.625 C199.48742187 393.48609375 200.47484375 394.3471875 201.4921875 395.234375 C202.95011719 396.47960937 202.95011719 396.47960937 204.4375 397.75 C206.00115905 399.12368178 207.56383277 400.49848696 209.125 401.875 C210.22817493 402.83447479 211.33191431 403.79330408 212.4375 404.75 C217.3912605 401.67289417 221.48057832 398.0867058 225.6875 394.0625 C226.91994477 392.889895 228.15423371 391.71922431 229.390625 390.55078125 C229.92848633 390.03684814 230.46634766 389.52291504 231.02050781 388.9934082 C232.4375 387.75 232.4375 387.75 234.4375 386.75 C230.86357647 366.7860324 226.89114536 346.91649412 222.76147461 327.0612793 C221.9036884 322.93507837 221.05583906 318.80689559 220.20997334 314.67823696 C219.55021676 311.46625723 218.88372263 308.25570358 218.21529198 305.04551888 C217.89902743 303.52096899 217.58525881 301.99589906 217.27407265 300.47030449 C216.84388409 298.36463513 216.40426457 296.26115334 215.9621582 294.15795898 C215.59173149 292.36816872 215.59173149 292.36816872 215.21382141 290.54222107 C214.65277332 287.63737108 214.65277332 287.63737108 212.4375 285.75 Z M58.15380859 342.84521484 C56.0133257 346.32593861 56.0133257 346.32593861 53.4375 352.75 C68.9475 352.75 84.4575 352.75 100.4375 352.75 C97.08451889 342.31134352 97.08451889 342.31134352 93.4375 340.75 C88.76355062 340.46766172 84.08889852 340.4363701 79.40722656 340.39990234 C77.84750452 340.3833372 76.28785858 340.35603911 74.72851562 340.31787109 C72.47746504 340.26307202 70.22819039 340.24122812 67.9765625 340.2265625 C66.9341893 340.19255844 66.9341893 340.19255844 65.87075806 340.15786743 C62.37372299 340.17310869 60.76228215 340.45202262 58.15380859 342.84521484 Z M14.4375 366.75 C14.4375 367.41 14.4375 368.07 14.4375 368.75 C16.0658005 369.99423697 16.0658005 369.99423697 18.21484375 371.18359375 C19.43844604 371.90216553 19.43844604 371.90216553 20.68676758 372.63525391 C21.57388428 373.14749512 22.46100098 373.65973633 23.375 374.1875 C31.00709829 378.65929925 38.48901654 383.27557849 45.79077148 388.27124023 C51.90569496 392.35015559 57.44858246 394.04188579 64.875 393.875 C66.45087891 393.84792969 66.45087891 393.84792969 68.05859375 393.8203125 C68.84363281 393.79710937 69.62867188 393.77390625 70.4375 393.75 C71.0975 390.78 71.7575 387.81 72.4375 384.75 C75.35387534 384.08718742 77.73006762 383.6124437 80.6875 384.1875 C83.5860229 386.77546688 83.712189 390.00255982 84.4375 393.75 C86.08242618 393.83301497 87.72866332 393.89007466 89.375 393.9375 C90.29152344 393.97230469 91.20804687 394.00710938 92.15234375 394.04296875 C101.08036194 393.24677212 107.85267041 388.92161627 115.1875 384.0625 C117.12178015 382.80243979 119.05667419 381.54332143 120.9921875 380.28515625 C121.9212793 379.67816895 122.85037109 379.07118164 123.80761719 378.44580078 C128.25561849 375.57764101 132.80594154 372.88621086 137.3671875 370.203125 C138.05039062 369.72359375 138.73359375 369.2440625 139.4375 368.75 C139.4375 368.09 139.4375 367.43 139.4375 366.75 C98.1875 366.75 56.9375 366.75 14.4375 366.75 Z M14.4375 384.75 C14.41437208 392.55575195 14.39658262 400.36149595 14.38568783 408.16727352 C14.38045998 411.7914596 14.37336413 415.4156223 14.36206055 419.03979492 C14.35122816 422.53459975 14.34522242 426.02938204 14.34262276 429.52420235 C14.33986449 431.51239389 14.33205312 433.50057631 14.32420349 435.48875427 C14.32412796 436.68992386 14.32405243 437.89109344 14.32397461 439.12866211 C14.321754 440.19233505 14.31953339 441.256008 14.31724548 442.35191345 C14.16633237 444.70243414 14.16633237 444.70243414 15.4375 445.75 C17.02939973 445.84814195 18.62565907 445.87631906 20.22058105 445.87698364 C21.77288673 445.88121338 21.77288673 445.88121338 23.35655212 445.88552856 C24.50152664 445.88350433 25.64650116 445.8814801 26.82617188 445.87939453 C28.02440079 445.88114685 29.2226297 445.88289917 30.45716858 445.88470459 C33.75254792 445.88836275 37.04786484 445.8874897 40.34324074 445.8843255 C43.78477693 445.88180149 47.22631038 445.88413956 50.66784668 445.88571167 C56.44832847 445.88753325 62.22879749 445.88512737 68.00927734 445.88037109 C74.70133534 445.87492849 81.39336287 445.87669116 88.08542013 445.8821975 C93.8212922 445.88672897 99.55715508 445.88737901 105.29302835 445.88475883 C108.72310288 445.88319624 112.15316307 445.88300179 115.58323669 445.88629532 C119.40511264 445.88970843 123.2269542 445.88498373 127.04882812 445.87939453 C128.19380264 445.88141876 129.33877716 445.88344299 130.51844788 445.88552856 C132.07075356 445.88129883 132.07075356 445.88129883 133.65441895 445.87698364 C134.55924263 445.87660662 135.46406631 445.87622959 136.3963089 445.87584114 C138.4317422 445.9765097 138.4317422 445.9765097 139.4375 444.75 C139.53131302 442.90881971 139.55493954 441.06402359 139.55102539 439.22045898 C139.55094986 438.03931015 139.55087433 436.85816132 139.55079651 435.64122009 C139.54563522 434.3558284 139.54047394 433.07043671 139.53515625 431.74609375 C139.5337413 430.43794205 139.53232635 429.12979034 139.53086853 427.78199768 C139.5270441 424.29837141 139.51721446 420.81478661 139.50616455 417.33117676 C139.49594882 413.77873292 139.49137056 410.22628241 139.48632812 406.67382812 C139.47559212 399.69920168 139.4585166 392.72460283 139.4375 385.75 C135.77520767 387.17246401 132.56896452 388.7810849 129.234375 390.8671875 C128.25339844 391.47433594 127.27242188 392.08148438 126.26171875 392.70703125 C124.22699478 393.97647149 122.19312694 395.24728508 120.16015625 396.51953125 C111.1087525 402.1160201 103.57010059 406.15495501 92.875 407 C92.05708984 407.07734375 91.23917969 407.1546875 90.39648438 407.234375 C88.41140461 407.42011346 86.42458341 407.58708917 84.4375 407.75 C84.25574219 408.31517334 84.07398438 408.88034668 83.88671875 409.46264648 C83.63535156 410.19555908 83.38398438 410.92847168 83.125 411.68359375 C82.88136719 412.41376709 82.63773437 413.14394043 82.38671875 413.89624023 C81.4375 415.75 81.4375 415.75 78.4375 416.8125 C75.4375 416.75 75.4375 416.75 72.4375 415.75 C71.70703125 413.90234375 71.70703125 413.90234375 71.25 411.6875 C71.01216797 410.58728516 71.01216797 410.58728516 70.76953125 409.46484375 C70.65996094 408.89894531 70.55039063 408.33304687 70.4375 407.75 C69.2515625 407.6984375 68.065625 407.646875 66.84375 407.59375 C46.87872009 406.35411164 33.39620784 396.80313214 17.13305664 385.81640625 C15.63025601 384.6612673 15.63025601 384.6612673 14.4375 384.75 Z " fill="#000000" transform="translate(166.5625,26.25)"/>
<path d="M0 0 C1.43866173 -0.00786278 1.43866173 -0.00786278 2.90638733 -0.0158844 C4.93294304 -0.02230215 6.95953602 -0.02097081 8.98608398 -0.01245117 C12.08319614 -0.00394596 15.17846088 -0.03269858 18.27539062 -0.06445312 C20.2460932 -0.06606539 22.21679903 -0.06548712 24.1875 -0.0625 C25.11159164 -0.07373398 26.03568329 -0.08496796 26.98777771 -0.09654236 C31.0891983 -0.05219689 33.54668569 0.08197586 37.15844727 2.15209961 C41.38447279 6.96881 41.46832589 11.60558204 41.4609375 17.8046875 C41.46522263 18.60463638 41.46950775 19.40458527 41.47392273 20.22877502 C41.47964904 21.9156093 41.48017885 23.60246825 41.47583008 25.28930664 C41.47267073 27.85931837 41.49614729 30.4281773 41.52148438 32.99804688 C41.52375773 34.64192564 41.52446069 36.28580748 41.5234375 37.9296875 C41.53264725 38.69236435 41.54185699 39.4550412 41.55134583 40.24082947 C41.50269307 45.89733163 40.34794522 49.86266149 36.58764648 54.28149414 C32.63053114 56.15956186 28.64419655 55.88089352 24.3203125 55.8671875 C22.88165077 55.87505028 22.88165077 55.87505028 21.41392517 55.8830719 C19.38736946 55.88948965 17.36077648 55.88815831 15.33422852 55.87963867 C12.23711636 55.87113346 9.14185162 55.89988608 6.04492188 55.93164062 C4.0742193 55.93325289 2.10351347 55.93267462 0.1328125 55.9296875 C-0.79127914 55.94092148 -1.71537079 55.95215546 -2.66746521 55.96372986 C-6.81069188 55.91893237 -9.21746383 55.80329178 -12.83813477 53.65258789 C-17.11632518 48.91000066 -17.14760898 44.94611153 -17.140625 38.6875 C-17.14491013 37.83937241 -17.14919525 36.99124481 -17.15361023 36.11741638 C-17.1593451 34.32625215 -17.15986 32.53506463 -17.15551758 30.74389648 C-17.15235888 28.00919709 -17.1758222 25.27558124 -17.20117188 22.54101562 C-17.20344515 20.79817844 -17.20414824 19.05533836 -17.203125 17.3125 C-17.21233475 16.49777725 -17.22154449 15.6830545 -17.23103333 14.84364319 C-17.18470319 9.13477401 -16.1017022 6.00166871 -12.26733398 1.64819336 C-8.32664978 -0.32353589 -4.34467723 -0.01377193 0 0 Z M-2.83984375 14.43359375 C-2.83984375 23.34359375 -2.83984375 32.25359375 -2.83984375 41.43359375 C7.06015625 41.43359375 16.96015625 41.43359375 27.16015625 41.43359375 C27.16015625 32.52359375 27.16015625 23.61359375 27.16015625 14.43359375 C17.26015625 14.43359375 7.36015625 14.43359375 -2.83984375 14.43359375 Z " fill="#000000" transform="translate(200.83984375,287.56640625)"/>
<path d="M0 0 C1.43866173 -0.00786278 1.43866173 -0.00786278 2.90638733 -0.0158844 C4.93294304 -0.02230215 6.95953602 -0.02097081 8.98608398 -0.01245117 C12.08319614 -0.00394596 15.17846088 -0.03269858 18.27539062 -0.06445312 C20.2460932 -0.06606539 22.21679903 -0.06548712 24.1875 -0.0625 C25.11159164 -0.07373398 26.03568329 -0.08496796 26.98777771 -0.09654236 C31.13100438 -0.05174487 33.53777633 0.06389572 37.15844727 2.21459961 C41.4214565 6.94035774 41.4790303 10.90679687 41.49609375 17.14453125 C41.50275055 17.99028717 41.50940735 18.83604309 41.51626587 19.70742798 C41.52637748 21.49438303 41.53108335 23.28137574 41.53076172 25.06835938 C41.53513013 27.79230478 41.57145064 30.51462288 41.609375 33.23828125 C41.61524458 34.97785907 41.61921303 36.71744455 41.62109375 38.45703125 C41.63546478 39.26659271 41.64983582 40.07615417 41.66464233 40.9102478 C41.62213657 46.21164218 40.69117322 49.23966249 37.16015625 53.43359375 C34.06643281 55.49607604 33.36815129 55.68892523 29.85986328 55.72412109 C28.99531525 55.7368808 28.13076721 55.7496405 27.24002075 55.76278687 C25.84310501 55.76612534 25.84310501 55.76612534 24.41796875 55.76953125 C23.45744598 55.77618805 22.49692322 55.78284485 21.5072937 55.78970337 C19.47477128 55.79983061 17.4422156 55.80452037 15.40966797 55.80419922 C12.30380248 55.80856752 9.19936354 55.84487307 6.09375 55.8828125 C4.11849444 55.88868164 2.14323213 55.89265038 0.16796875 55.89453125 C-1.2228743 55.9160878 -1.2228743 55.9160878 -2.64181519 55.93807983 C-6.75490729 55.90901759 -9.21637701 55.79022281 -12.84033203 53.71728516 C-17.06128552 48.89643058 -17.14801447 44.26250791 -17.140625 38.0625 C-17.14705269 36.86257668 -17.14705269 36.86257668 -17.15361023 35.63841248 C-17.15933654 33.9515782 -17.15986635 32.26471925 -17.15551758 30.57788086 C-17.15235823 28.00786913 -17.17583479 25.4390102 -17.20117188 22.86914062 C-17.20344523 21.22526186 -17.20414819 19.58138002 -17.203125 17.9375 C-17.21693962 16.79348473 -17.21693962 16.79348473 -17.23103333 15.62635803 C-17.18238057 9.96985587 -16.02763272 6.00452601 -12.26733398 1.58569336 C-8.31021864 -0.29237436 -4.32388405 -0.01370602 0 0 Z M-2.83984375 14.43359375 C-2.83984375 23.34359375 -2.83984375 32.25359375 -2.83984375 41.43359375 C7.06015625 41.43359375 16.96015625 41.43359375 27.16015625 41.43359375 C27.16015625 32.52359375 27.16015625 23.61359375 27.16015625 14.43359375 C17.26015625 14.43359375 7.36015625 14.43359375 -2.83984375 14.43359375 Z " fill="#000000" transform="translate(105.83984375,380.56640625)"/>
<path d="M0 0 C1.43866173 -0.00786278 1.43866173 -0.00786278 2.90638733 -0.0158844 C4.93294304 -0.02230215 6.95953602 -0.02097081 8.98608398 -0.01245117 C12.08319614 -0.00394596 15.17846088 -0.03269858 18.27539062 -0.06445312 C20.2460932 -0.06606539 22.21679903 -0.06548712 24.1875 -0.0625 C25.11159164 -0.07373398 26.03568329 -0.08496796 26.98777771 -0.09654236 C31.13100438 -0.05174487 33.53777633 0.06389572 37.15844727 2.21459961 C41.4214565 6.94035774 41.4790303 10.90679687 41.49609375 17.14453125 C41.50275055 17.99028717 41.50940735 18.83604309 41.51626587 19.70742798 C41.52637748 21.49438303 41.53108335 23.28137574 41.53076172 25.06835938 C41.53513013 27.79230478 41.57145064 30.51462288 41.609375 33.23828125 C41.61524458 34.97785907 41.61921303 36.71744455 41.62109375 38.45703125 C41.63546478 39.26659271 41.64983582 40.07615417 41.66464233 40.9102478 C41.62213657 46.21164218 40.69117322 49.23966249 37.16015625 53.43359375 C34.06643281 55.49607604 33.36815129 55.68892523 29.85986328 55.72412109 C28.99531525 55.7368808 28.13076721 55.7496405 27.24002075 55.76278687 C25.84310501 55.76612534 25.84310501 55.76612534 24.41796875 55.76953125 C23.45744598 55.77618805 22.49692322 55.78284485 21.5072937 55.78970337 C19.47477128 55.79983061 17.4422156 55.80452037 15.40966797 55.80419922 C12.30380248 55.80856752 9.19936354 55.84487307 6.09375 55.8828125 C4.11849444 55.88868164 2.14323213 55.89265038 0.16796875 55.89453125 C-1.2228743 55.9160878 -1.2228743 55.9160878 -2.64181519 55.93807983 C-6.75490729 55.90901759 -9.21637701 55.79022281 -12.84033203 53.71728516 C-17.06128552 48.89643058 -17.14801447 44.26250791 -17.140625 38.0625 C-17.14705269 36.86257668 -17.14705269 36.86257668 -17.15361023 35.63841248 C-17.15933654 33.9515782 -17.15986635 32.26471925 -17.15551758 30.57788086 C-17.15235823 28.00786913 -17.17583479 25.4390102 -17.20117188 22.86914062 C-17.20344523 21.22526186 -17.20414819 19.58138002 -17.203125 17.9375 C-17.21693962 16.79348473 -17.21693962 16.79348473 -17.23103333 15.62635803 C-17.18238057 9.96985587 -16.02763272 6.00452601 -12.26733398 1.58569336 C-8.31021864 -0.29237436 -4.32388405 -0.01370602 0 0 Z M-2.83984375 14.43359375 C-2.83984375 23.34359375 -2.83984375 32.25359375 -2.83984375 41.43359375 C7.06015625 41.43359375 16.96015625 41.43359375 27.16015625 41.43359375 C27.16015625 32.52359375 27.16015625 23.61359375 27.16015625 14.43359375 C17.26015625 14.43359375 7.36015625 14.43359375 -2.83984375 14.43359375 Z " fill="#000000" transform="translate(105.83984375,287.56640625)"/>
<path d="M0 0 C1.43510422 -0.01142029 1.43510422 -0.01142029 2.89920044 -0.02307129 C4.92154331 -0.033868 6.94394191 -0.03672714 8.96630859 -0.03222656 C12.05271006 -0.03125554 15.1366145 -0.0728549 18.22265625 -0.1171875 C20.190099 -0.12239571 22.15755036 -0.12508267 24.125 -0.125 C25.50339554 -0.1495929 25.50339554 -0.1495929 26.90963745 -0.17468262 C31.26126272 -0.12800664 34.2770653 0.05901396 37.76220703 2.81835938 C41.78485686 7.20024645 41.38257038 11.42657568 41.43359375 17.08203125 C41.4416655 17.92920212 41.44973724 18.77637299 41.45805359 19.6492157 C41.4718794 21.44214846 41.48260828 23.23510738 41.49047852 25.02807617 C41.50768353 27.76076506 41.55158099 30.49224126 41.59570312 33.22460938 C41.60583137 34.96874113 41.61434706 36.71288314 41.62109375 38.45703125 C41.63860184 39.26972977 41.65610992 40.08242828 41.67414856 40.91975403 C41.65402549 46.22071094 40.79740429 49.31845361 37.1953125 53.46875 C34.37120738 55.19063299 32.25354659 55.72242785 28.96508789 55.7434082 C28.14065689 55.75294022 27.31622589 55.76247223 26.46681213 55.77229309 C25.58444382 55.77138168 24.7020755 55.77047028 23.79296875 55.76953125 C22.87825302 55.77381638 21.96353729 55.7781015 21.02110291 55.78251648 C19.08870267 55.78825323 17.15628083 55.78876486 15.22387695 55.78442383 C12.27192232 55.7812651 9.32097131 55.80472679 6.36914062 55.83007812 C4.4895846 55.83235135 2.61002588 55.83305451 0.73046875 55.83203125 C-0.14987534 55.841241 -1.03021942 55.85045074 -1.9372406 55.85993958 C-6.65779654 55.82441039 -10.11235498 55.7387076 -13.8046875 52.46875 C-17.02186077 47.68473162 -17.24759765 43.56239985 -17.203125 38 C-17.20743027 36.8021991 -17.20743027 36.8021991 -17.21182251 35.5802002 C-17.21385533 33.89932543 -17.20838039 32.21842658 -17.19580078 30.53759766 C-17.17973515 27.97634589 -17.19567528 25.4166719 -17.21484375 22.85546875 C-17.21286118 21.21614238 -17.20901721 19.57681698 -17.203125 17.9375 C-17.20919769 17.17796021 -17.21527039 16.41842041 -17.2215271 15.63586426 C-17.14760381 10.00005941 -15.98223349 6.02103647 -12.22998047 1.62304688 C-8.28521253 -0.25443076 -4.3135608 0.00094132 0 0 Z M-2.8046875 14.46875 C-2.8046875 23.37875 -2.8046875 32.28875 -2.8046875 41.46875 C7.0953125 41.46875 16.9953125 41.46875 27.1953125 41.46875 C27.1953125 32.55875 27.1953125 23.64875 27.1953125 14.46875 C17.2953125 14.46875 7.3953125 14.46875 -2.8046875 14.46875 Z " fill="#000000" transform="translate(105.8046875,194.53125)"/>
<path d="M0 0 C1.43866173 -0.00786278 1.43866173 -0.00786278 2.90638733 -0.0158844 C4.93294304 -0.02230215 6.95953602 -0.02097081 8.98608398 -0.01245117 C12.08319614 -0.00394596 15.17846088 -0.03269858 18.27539062 -0.06445312 C20.2460932 -0.06606539 22.21679903 -0.06548712 24.1875 -0.0625 C25.11159164 -0.07373398 26.03568329 -0.08496796 26.98777771 -0.09654236 C31.0891983 -0.05219689 33.54668569 0.08197586 37.15844727 2.15209961 C41.3239721 6.89985294 41.46847113 11.4365543 41.4609375 17.55078125 C41.46522263 18.32616241 41.46950775 19.10154358 41.47392273 19.90042114 C41.47964866 21.5359805 41.48017912 23.17156531 41.47583008 24.80712891 C41.47267509 27.29374226 41.49613237 29.77915894 41.52148438 32.265625 C41.52375824 33.8606756 41.52446046 35.45572936 41.5234375 37.05078125 C41.53264725 37.78642303 41.54185699 38.52206482 41.55134583 39.27999878 C41.50631718 44.36987426 40.68492309 47.97091081 38.16015625 52.43359375 C33.92136232 56.30564501 29.09826685 55.86967798 23.66015625 55.83203125 C22.74685547 55.83490143 21.83355469 55.83777161 20.89257812 55.84072876 C18.96613951 55.84276564 17.03968003 55.8372621 15.11328125 55.82470703 C12.17010101 55.80864801 9.22829395 55.82456845 6.28515625 55.84375 C4.41015323 55.8417675 2.53515106 55.83792369 0.66015625 55.83203125 C-0.6556543 55.84114029 -0.6556543 55.84114029 -1.99804688 55.85043335 C-6.72911876 55.7961615 -10.08971071 55.63537478 -13.83984375 52.43359375 C-17.4521135 48.11978786 -17.27842812 43.95527677 -17.23828125 38.58984375 C-17.24115143 37.7431311 -17.24402161 36.89641846 -17.24697876 36.02404785 C-17.24901479 34.23884408 -17.24351725 32.45361777 -17.23095703 30.66845703 C-17.21489637 27.94252437 -17.23082093 25.21807428 -17.25 22.4921875 C-17.24801749 20.75390299 -17.24417364 19.0156194 -17.23828125 17.27734375 C-17.24435394 16.46575806 -17.25042664 15.65417236 -17.25668335 14.81799316 C-17.18630221 9.12963805 -16.08791332 5.98601306 -12.26733398 1.64819336 C-8.32664978 -0.32353589 -4.34467723 -0.01377193 0 0 Z M-2.83984375 14.43359375 C-2.83984375 23.34359375 -2.83984375 32.25359375 -2.83984375 41.43359375 C7.06015625 41.43359375 16.96015625 41.43359375 27.16015625 41.43359375 C27.16015625 32.52359375 27.16015625 23.61359375 27.16015625 14.43359375 C17.26015625 14.43359375 7.36015625 14.43359375 -2.83984375 14.43359375 Z " fill="#000000" transform="translate(200.83984375,194.56640625)"/>
</svg>
