<?xml version="1.0" encoding="UTF-8"?>
<svg version="1.1" xmlns="http://www.w3.org/2000/svg" width="512" height="512">
<path d="M0 0 C2.39719519 0.30302298 2.39719519 0.30302298 5.11488342 0.25828552 C6.17315338 0.26511353 7.23142334 0.27194153 8.32176208 0.27897644 C9.4828096 0.27642349 10.64385712 0.27387054 11.84008789 0.27124023 C13.0631665 0.27646698 14.28624512 0.28169373 15.54638672 0.28707886 C18.20815246 0.2973364 20.8696601 0.30403865 23.53141975 0.30496025 C27.74769942 0.30690244 31.96381502 0.32496673 36.18003845 0.34571838 C46.6585947 0.39489966 57.13719581 0.42572256 67.61584473 0.44702148 C75.74862128 0.46358267 83.88125774 0.48652443 92.01394075 0.53004223 C96.19685934 0.5517162 100.37951119 0.5598859 104.562482 0.55764949 C107.793095 0.55972264 111.02359448 0.58111425 114.25415039 0.59936523 C115.40102829 0.59478806 116.54790619 0.59021088 117.72953796 0.585495 C129.73952291 0.69298045 140.22599752 3.80730422 149.23046875 12.0390625 C157.46884311 20.78750507 162.23447674 31.10763419 162.26742554 43.21488953 C162.27195665 43.90660761 162.27648776 44.5983257 162.28115618 45.31100494 C162.29373665 47.610645 162.29218396 49.9100463 162.29052734 52.2097168 C162.29651668 53.86613771 162.30332316 55.52255584 162.31088257 57.17897034 C162.32851118 61.66683674 162.3332367 66.1546268 162.33451414 70.64252448 C162.33593839 73.45096419 162.34021322 76.25938467 162.34550858 79.0678196 C162.36400038 88.87880301 162.37218049 98.68973216 162.37060547 108.50073242 C162.36940518 117.62398467 162.39048767 126.74699992 162.4220928 135.87019223 C162.44831106 143.72014873 162.4589704 151.57002812 162.45769465 159.42002803 C162.45718653 164.10073327 162.46278598 168.78122791 162.48405075 173.46188927 C162.50352623 177.86889632 162.50349452 182.27549394 162.48901749 186.6825161 C162.48693959 188.29165755 162.49156889 189.90082525 162.5037384 191.50992203 C162.60657668 206.06068842 160.08696208 217.94509711 150 229 C141.40092406 236.96954858 131.85912093 240.5412775 120.27929688 241.54321289 C119.29022339 241.62978653 118.3011499 241.71636017 117.28210449 241.80555725 C116.52901001 241.86972336 115.77591553 241.93388947 115 242 C115.56296783 242.55408539 116.12593567 243.10817078 116.70596313 243.67904663 C122.0415505 248.93407602 127.36713224 254.19895987 132.68209267 259.47484398 C135.41410791 262.18609353 138.14966917 264.8935413 140.89404297 267.59228516 C143.54846457 270.20285247 146.19264076 272.82342109 148.83036423 275.45085526 C149.83222336 276.44539338 150.83756292 277.43643958 151.84660721 278.42368698 C159.51455063 285.93269414 165.81269442 293.5289303 169.3125 303.8125 C169.61800781 304.68519531 169.92351562 305.55789063 170.23828125 306.45703125 C174.60163482 321.02391933 171.53959467 335.24234833 164.515625 348.38671875 C158.34378609 359.02836883 147.68315546 366.46677439 136.04296875 370.1875 C122.93584819 373.25349311 108.46228575 372.13711553 96.6328125 365.71484375 C86.91206234 359.67721519 78.8064704 350.96560747 70.73828125 342.94140625 C69.90338669 342.11221176 69.06849213 341.28301727 68.20829773 340.42869568 C66.46000056 338.68976568 64.71309102 336.94943953 62.9675293 335.20776367 C60.31551954 332.56550843 57.65301566 329.93412824 54.99023438 327.30273438 C53.2805915 325.59961911 51.57158535 323.89586438 49.86328125 322.19140625 C49.0777034 321.4181752 48.29212555 320.64494415 47.48274231 319.84828186 C40.71163671 313.05000961 34.66244426 305.70188383 31.125 296.6875 C30.73570312 295.72199219 30.34640625 294.75648438 29.9453125 293.76171875 C28.4026251 289.25477665 27.87761718 286.29605055 28.81640625 281.61328125 C29.90241499 274.93534722 30.73002377 268.19779098 26.85272217 262.23590088 C19.78861335 253.11528921 10.74185797 245.46312874 2 238 C-1.37652611 239.31471961 -4.32288943 240.73307832 -7.375 242.6875 C-39.14654323 261.89059451 -77.48280371 266.73015179 -113.47070312 258.43017578 C-144.15686242 250.84313758 -144.15686242 250.84313758 -153 242 C-154.74897209 241.89803291 -156.50207686 241.8664634 -158.25401306 241.86196899 C-159.96350632 241.85378899 -159.96350632 241.85378899 -161.70753479 241.84544373 C-162.96928024 241.8444014 -164.2310257 241.84335907 -165.53100586 241.84228516 C-166.86466642 241.83761899 -168.19832539 241.83247576 -169.53198242 241.82688904 C-172.41195973 241.8155864 -175.29192655 241.80716237 -178.17191887 241.80076981 C-182.7324548 241.79009949 -187.29291626 241.76985376 -191.85340881 241.74765015 C-204.82484496 241.68570466 -217.79627839 241.63181822 -230.76782227 241.59863281 C-237.92604298 241.5802391 -245.08414048 241.55123701 -252.24227053 241.5106281 C-256.02868598 241.48962394 -259.81494651 241.47411038 -263.60142326 241.47182083 C-267.17116169 241.46966012 -270.74057855 241.45364737 -274.31021881 241.42743111 C-276.23101984 241.41690622 -278.15188387 241.42096995 -280.07270813 241.4256134 C-293.5103306 241.29766647 -304.2454507 237.52364679 -314.25 228.375 C-325.19933131 216.80505882 -326.30142946 203.08873817 -326.2746582 188.02807617 C-326.27901036 186.40929429 -326.28419518 184.79051447 -326.29014587 183.17173767 C-326.30349428 178.79142386 -326.30411909 174.41119656 -326.30158257 170.03086638 C-326.30050984 166.36563565 -326.30540406 162.70042219 -326.310188 159.03519517 C-326.32126923 150.38274381 -326.32172866 141.73033587 -326.31567383 133.07788086 C-326.30963726 124.17218339 -326.32194017 115.26664404 -326.3432439 106.36097354 C-326.36089856 98.69699927 -326.36685509 91.03307515 -326.36360615 83.36908132 C-326.361799 78.79968769 -326.36437237 74.23040681 -326.37832069 69.66103172 C-326.39095715 65.36076396 -326.38890032 61.06074135 -326.37590981 56.76047707 C-326.37355693 55.18962138 -326.37623206 53.61874812 -326.38453293 52.0479126 C-326.45485805 37.69560721 -324.47217237 24.55662128 -314.5546875 13.46875 C-303.93442683 3.43553892 -292.10011077 0.36140394 -277.77441406 0.59692383 C-275.83480483 0.60324676 -273.89519553 0.60955903 -271.955585 0.61547124 C-269.89506881 0.62534346 -267.83484107 0.64488916 -265.77442169 0.66697121 C-261.45077155 0.71167527 -257.12750326 0.71972674 -252.8036499 0.72160339 C-240.51690419 0.73208525 -228.23067052 0.78538591 -215.94433594 0.88647461 C-209.1393214 0.94214655 -202.33496134 0.96487338 -195.52972198 0.95314807 C-191.94265796 0.94852293 -188.35745921 0.9605485 -184.77075958 1.01450539 C-164.37924146 1.52560382 -164.37924146 1.52560382 -146.21380615 -6.69868469 C-105.05169451 -36.17370376 -39.64632354 -26.43088236 0 0 Z M-168.19067383 28.80737305 C-192.49296937 52.38168186 -205.37708662 85.36373766 -206.25 119 C-205.65655007 139.42165951 -201.13614622 158.72290158 -192 177 C-191.41605469 178.16917969 -190.83210937 179.33835937 -190.23046875 180.54296875 C-174.50468377 209.84258919 -147.37199806 230.8021395 -116 241 C-81.55500795 250.78801286 -47.15528757 246.32209505 -16 229 C12.0212683 213.37489542 32.45575911 186.11154162 41.97265625 155.734375 C44.55587086 146.344439 46.51939411 136.74319208 47 127 C47.05285156 125.94167969 47.10570312 124.88335937 47.16015625 123.79296875 C48.00124542 90.03969479 36.35169498 58.02092029 13.26171875 33.359375 C12.51535156 32.58078125 11.76898438 31.8021875 11 31 C10.24332031 30.18015625 9.48664063 29.3603125 8.70703125 28.515625 C-6.12722894 12.93118199 -24.67313867 3.36688232 -45 -3 C-45.96808594 -3.31839844 -46.93617188 -3.63679688 -47.93359375 -3.96484375 C-90.83782731 -16.48117313 -136.64500267 -1.00705446 -168.19067383 28.80737305 Z M-306 29 C-310.52416627 37.65099566 -310.56711473 46.46625042 -310.50170898 55.97705078 C-310.50549955 57.56011433 -310.51100564 59.14317454 -310.51808167 60.72622681 C-310.5319552 64.99478181 -310.52092502 69.26293009 -310.50437045 73.53146219 C-310.49044235 78.01421269 -310.49698864 82.49694143 -310.50050354 86.97970581 C-310.503199 94.50297543 -310.48978548 102.0260849 -310.46655273 109.54931641 C-310.43992783 118.23076001 -310.43820454 126.91193633 -310.4499411 135.5934068 C-310.46074131 143.96928692 -310.45451547 152.34507094 -310.44038582 160.72094345 C-310.4346474 164.27495487 -310.4346917 167.82889547 -310.43945122 171.38290787 C-310.44424368 175.57079527 -310.43402597 179.75839203 -310.41249657 183.94622421 C-310.40696003 185.47759776 -310.40643441 187.00899941 -310.41144943 188.54037476 C-310.44133984 198.98131025 -310.2465579 208.20753743 -302.9375 216.3125 C-301.89916016 217.51326172 -301.89916016 217.51326172 -300.83984375 218.73828125 C-293.51633802 224.57089448 -285.68890253 225.58358037 -276.58349609 225.45410156 C-275.48963593 225.45468567 -274.39577576 225.45526978 -273.26876831 225.45587158 C-269.68665802 225.45310557 -266.10540075 225.42208279 -262.5234375 225.390625 C-260.02666681 225.38315737 -257.52989023 225.3774669 -255.03311157 225.37347412 C-248.48671056 225.35825913 -241.94066896 225.31901253 -235.39440918 225.2746582 C-228.70441672 225.23143036 -222.01431194 225.21544405 -215.32421875 225.1953125 C-202.2159932 225.15251463 -189.10801579 225.08509067 -176 225 C-176.94122475 223.89615706 -177.88328383 222.7930255 -178.82568359 221.69018555 C-179.61245987 220.76860909 -179.61245987 220.76860909 -180.41513062 219.82841492 C-181.84627763 218.17734475 -183.30501631 216.56047939 -184.7890625 214.95703125 C-209.88295205 187.40510809 -222.50553835 150.08378665 -221 113 C-219.03780645 78.60577816 -206.35476938 47.30697452 -182.84765625 22.05859375 C-180.85434369 19.93638507 -180.85434369 19.93638507 -179 17 C-193.1694085 16.8828991 -207.33874134 16.79521459 -221.50853539 16.74093914 C-228.08870645 16.71488494 -234.66855162 16.679562 -241.24853516 16.62280273 C-247.60279148 16.56833582 -253.956735 16.53854806 -260.31120682 16.52561378 C-262.73123724 16.51640039 -265.15125123 16.49840877 -267.57114792 16.47134972 C-270.97016676 16.4348659 -274.3679056 16.43006295 -277.76708984 16.43237305 C-278.75971832 16.41439667 -279.7523468 16.39642029 -280.77505493 16.37789917 C-290.87031219 16.45177087 -300.03684068 20.64797076 -306 29 Z M21 17 C23.35641057 20.58580243 25.65216921 23.84449094 28.625 26.9375 C46.72241786 47.05321724 57.20664162 73.44649132 61 100 C61.13019531 100.84949219 61.26039063 101.69898438 61.39453125 102.57421875 C65.49725669 134.79428924 57.83200289 169.69894008 39.2734375 196.3984375 C38.64308594 197.68621094 38.64308594 197.68621094 38 199 C38.73408609 200.9381377 38.73408609 200.9381377 40 203 C40.41668945 203.81629883 40.83337891 204.63259766 41.26269531 205.47363281 C46.20504606 214.09114393 52.43526654 221.60878079 62 225 C72.43124019 227.04289402 83.16534813 226.81571922 93.75 226.625 C94.45234268 226.61457169 95.15468536 226.60414337 95.87831116 226.59339905 C100.66756974 226.51719509 105.44865832 226.3646311 110.234375 226.1640625 C111.46933716 226.11478607 112.70429932 226.06550964 113.97668457 226.01473999 C123.0213479 225.47519579 132.49968092 223.86144792 139 217 C143.44538611 210.38639861 146.11867536 205.46401084 146.14717102 197.39779663 C146.15084771 196.72371376 146.1545244 196.04963088 146.1583125 195.35512125 C146.16934473 193.09139477 146.17319242 190.82771419 146.17700195 188.56396484 C146.18326707 186.94267633 146.18991391 185.32138926 146.19691467 183.70010376 C146.21795577 178.37039184 146.22831867 173.04067965 146.23828125 167.7109375 C146.24232911 165.87515879 146.24644604 164.03938024 146.25063133 162.20360184 C146.26968491 153.57679279 146.28391431 144.9499923 146.2922433 136.32316625 C146.30200987 126.37201666 146.3283135 116.42108986 146.36874419 106.47001874 C146.39893405 98.7747626 146.41371499 91.07957021 146.41702431 83.38425601 C146.41937198 78.79020278 146.42829512 74.1963875 146.45348549 69.60239792 C146.4768208 65.27672582 146.48097762 60.95144741 146.47072411 56.62572861 C146.47022992 55.0427367 146.47651566 53.45972505 146.49028015 51.87679291 C146.57436679 41.62879416 145.58754964 34.33007376 139.8125 25.75 C134.60667719 20.65986215 128.09379529 16.87081569 120.69099426 16.87974548 C119.81179825 16.87837082 118.93260223 16.87699615 118.02676392 16.87557983 C117.06507294 16.87917511 116.10338196 16.88277039 115.11254883 16.88647461 C114.09773941 16.88632858 113.08292999 16.88618256 112.03736877 16.8860321 C108.67723465 16.88672974 105.31715571 16.89451522 101.95703125 16.90234375 C99.62961355 16.90420846 97.30219546 16.90563211 94.97477722 16.90663147 C88.84435953 16.91045249 82.71396547 16.92027926 76.58355713 16.93133545 C70.32979655 16.94155848 64.07603215 16.94613101 57.82226562 16.95117188 C45.54816669 16.96190187 33.27408531 16.97897334 21 17 Z M24.1796875 216.625 C23.07303114 217.74498957 21.9716808 218.87024066 20.875 220 C20.03001953 220.85851562 20.03001953 220.85851562 19.16796875 221.734375 C17.77413732 223.15183069 16.38648364 224.57535626 15 226 C16.51376081 229.56764285 18.60513129 231.83706287 21.3515625 234.546875 C22.20234375 235.39121094 23.053125 236.23554688 23.9296875 237.10546875 C24.81914062 237.97816406 25.70859375 238.85085938 26.625 239.75 C27.97078125 241.08224609 27.97078125 241.08224609 29.34375 242.44140625 C31.55807004 244.63216969 33.77692435 246.81812763 36 249 C39.78034623 245.52263974 39.78034623 245.52263974 42 241 C43.32407669 240.31513275 44.65909241 239.65129797 46 239 C47.35544852 237.6891549 48.69158236 236.35779189 50 235 C47.05226582 232.00292183 44.09808792 229.01239506 41.13769531 226.02783203 C40.13100272 225.01106601 39.12611034 223.99251438 38.12304688 222.97216797 C36.68305629 221.50798782 35.23676744 220.05029795 33.7890625 218.59375 C32.48509521 217.27407227 32.48509521 217.27407227 31.15478516 215.92773438 C27.80943044 212.93488134 27.49992961 213.53469155 24.1796875 216.625 Z M51 256 C44.34574763 264.46620841 43.04725032 273.42076655 44 284 C45.79615721 293.05311452 50.60082463 298.67301666 57 305 C58.52261454 306.52295863 60.04470101 308.04644531 61.56640625 309.5703125 C64.06486389 312.07095601 66.56661816 314.56745856 69.08422852 317.04882812 C73.34988693 321.2661665 77.43242513 325.55356896 81.34228516 330.10205078 C88.47719814 338.27094821 96.31551799 346.90992776 106 352 C106.59296875 352.33386719 107.1859375 352.66773438 107.796875 353.01171875 C115.6347445 356.7129349 126.25137577 356.33868497 134.3125 353.5625 C144.65247427 348.62477518 150.99697061 340.57626953 155 330 C157.20643502 320.99828659 156.33717582 312.12817397 151.87161255 303.92790222 C147.51897861 297.22912928 142.17920053 291.68798424 136.5546875 286.05078125 C135.5380502 285.02447323 134.52162578 283.99795428 133.50540161 282.97123718 C131.38420174 280.83219018 129.25701181 278.69931467 127.12597656 276.57006836 C124.42114231 273.86553871 121.73754423 271.14095639 119.05882072 268.41059589 C116.96885491 266.28697748 114.86509149 264.17743444 112.7574501 262.07137108 C111.76321998 261.07364553 110.77374292 260.07115616 109.78957748 259.06350136 C101.26445383 250.35409292 91.6124052 242.97552368 79 242.6875 C66.95459848 242.8479271 59.07984159 247.16176173 51 256 Z " fill="#000000" transform="translate(333,82)"/>
<path d="M0 0 C6.93845922 4.95775719 11.7437022 10.66335319 14 19 C14.31121186 22.14069037 14.35133914 25.26729491 14.37109375 28.421875 C14.38463646 29.7719162 14.38463646 29.7719162 14.39845276 31.14923096 C14.41291598 33.04867245 14.4218322 34.94816331 14.42553711 36.84765625 C14.43740699 39.72743463 14.48660786 42.60504972 14.53710938 45.484375 C14.63642902 56.78262921 14.19337801 65.02761529 6.5 73.875 C5.675 74.57625 4.85 75.2775 4 76 C2.8553125 77.051875 2.8553125 77.051875 1.6875 78.125 C-6.32666256 83.7162762 -14.45562094 83.90507043 -24 83 C-31.59385984 81.14568539 -38.19818066 76.11582395 -42.57421875 69.6875 C-46.3273961 63.14901339 -47.16888052 57.95571615 -47.23828125 50.4296875 C-47.246353 49.59341827 -47.25442474 48.75714905 -47.26274109 47.89553833 C-47.27655494 46.12536677 -47.28728914 44.35516887 -47.29516602 42.58496094 C-47.30665381 40.78898215 -47.32705465 38.99303664 -47.35668945 37.19726562 C-47.56943929 24.29440412 -47.36986906 13.68418535 -38.06640625 3.7578125 C-27.33868148 -5.3678513 -12.2374306 -7.02519164 0 0 Z M-27 16 C-30.40969642 21.12458023 -31.50500849 24.40031297 -31.49609375 30.69140625 C-31.49754898 31.39974106 -31.49900421 32.10807587 -31.50050354 32.83787537 C-31.49885462 34.32449488 -31.48740702 35.81113327 -31.46655273 37.29760742 C-31.43752595 39.56047675 -31.44597735 41.82100752 -31.45898438 44.08398438 C-31.51087075 53.44216909 -31.51087075 53.44216909 -28 62 C-23.34699155 66.19905641 -20.46699458 67.36619655 -14.31640625 67.27734375 C-9.47809588 66.69805195 -6.81375911 64.00882304 -3.86523438 60.35351562 C-1.68808095 56.43919894 -1.41941381 53.33021655 -1.46875 48.96875 C-1.46300964 47.83753723 -1.46300964 47.83753723 -1.45715332 46.68347168 C-1.45444406 45.0967474 -1.46173605 43.50997771 -1.47851562 41.92333984 C-1.49994268 39.50646587 -1.47868381 37.09256372 -1.453125 34.67578125 C-1.45576846 33.12759766 -1.46089381 31.57941591 -1.46875 30.03125 C-1.46065308 29.31545776 -1.45255615 28.59966553 -1.44421387 27.86218262 C-1.53817232 22.78812595 -2.84737882 19.92828939 -6 16 C-9.27230004 13.12434239 -11.8735355 12.10831389 -16.25 11.6875 C-20.62430257 12.05202521 -23.76012051 12.98668551 -27 16 Z " fill="#000000" transform="translate(449,167)"/>
<path d="M0 0 C7.02857942 5.74110132 11.43765566 12.39164187 12.77734375 21.45703125 C13.04822131 26.16030417 13.10711827 30.8452652 13.09301758 35.55541992 C13.08986565 37.75425213 13.11334332 39.95172477 13.13867188 42.15039062 C13.19078302 53.41984438 12.38163346 63.5394633 4.8828125 72.4453125 C-2.38960885 79.39391546 -9.99102675 81.83900186 -19.81811523 81.91015625 C-27.93674346 81.72086417 -34.31060539 78.91500478 -40.41015625 73.5234375 C-47.50912787 65.93641158 -49.36458871 57.86414864 -49.42578125 47.6640625 C-49.43148132 46.9179924 -49.4371814 46.1719223 -49.4430542 45.40324402 C-49.452472 43.82735599 -49.45902533 42.25144854 -49.46289062 40.67553711 C-49.47255532 38.29439814 -49.50359129 35.91413843 -49.53515625 33.53320312 C-49.61139662 22.70465642 -49.16681071 13.03373672 -42.0234375 4.27734375 C-30.56808062 -7.30225778 -13.48469788 -9.36108201 0 0 Z M-30.53515625 17.01953125 C-34.36321038 22.54894278 -33.48169847 29.02973878 -33.51782227 35.48852539 C-33.5293071 36.91701185 -33.54970361 38.34545658 -33.5793457 39.77368164 C-33.82138442 51.20903605 -33.82138442 51.20903605 -29.22265625 61.45703125 C-25.71193127 64.80057885 -22.95228716 65.72978172 -18.22265625 65.95703125 C-13.53360003 65.75254609 -10.77299236 64.66099311 -7.22265625 61.45703125 C-2.06564252 54.34390886 -3.00573106 46.59927995 -2.97265625 38.14453125 C-2.95203125 36.83806641 -2.93140625 35.53160156 -2.91015625 34.18554688 C-2.76723465 23.66369437 -2.76723465 23.66369437 -7.72265625 14.71484375 C-16.1903481 8.3199723 -23.41656453 9.13136204 -30.53515625 17.01953125 Z " fill="#000000" transform="translate(201.22265625,168.54296875)"/>
<path d="M0 0 C6.38816855 5.13372621 10.76429275 11.19578958 11.83737183 19.53726196 C12.22567007 24.7543581 12.22353406 29.96383186 12.15161133 35.19238281 C12.11716666 37.96652187 12.13102983 40.73748841 12.15039062 43.51171875 C12.14349362 45.30079461 12.13382256 47.08986238 12.12109375 48.87890625 C12.12605362 49.69477203 12.13101349 50.51063782 12.13612366 51.35122681 C11.93690672 61.22212536 7.56290864 68.60645481 0.5546875 75.33984375 C-7.77873435 81.80249743 -16.20009002 82.1954173 -26.4453125 81.33984375 C-34.56828652 79.37384859 -40.73834125 73.75917585 -45.8203125 67.33984375 C-49.15589556 61.18184426 -49.76185686 55.32168163 -49.78125 48.4765625 C-49.7879068 47.64453812 -49.7945636 46.81251373 -49.80142212 45.95527649 C-49.81149854 44.20303541 -49.8162407 42.45075635 -49.81591797 40.69848633 C-49.82028332 38.04507877 -49.85663315 35.39334758 -49.89453125 32.74023438 C-49.97501661 20.76405474 -49.06652966 11.22525148 -40.51171875 2.09765625 C-28.76705418 -7.8930792 -12.6335343 -8.57708 0 0 Z M-30.4453125 15.33984375 C-33.24245812 19.95709413 -33.90131904 23.85446875 -33.87890625 29.15234375 C-33.8841481 29.88428955 -33.88938995 30.61623535 -33.89479065 31.37036133 C-33.90118247 32.90998065 -33.8999108 34.44964898 -33.89135742 35.98925781 C-33.8828353 38.33357229 -33.91166276 40.6754562 -33.94335938 43.01953125 C-33.94497148 44.52213469 -33.94439367 46.02474241 -33.94140625 47.52734375 C-33.95264023 48.22126221 -33.96387421 48.91518066 -33.97544861 49.63012695 C-33.90416243 54.65222457 -32.56336337 57.45839941 -29.4453125 61.33984375 C-25.28999794 65.0119822 -22.02657518 65.99520153 -16.62109375 65.72265625 C-11.88728995 64.88977874 -9.23842679 62.32307327 -6.31054688 58.69335938 C-4.13339345 54.77904269 -3.86472631 51.6700603 -3.9140625 47.30859375 C-3.90832214 46.17738098 -3.90832214 46.17738098 -3.90246582 45.02331543 C-3.89975656 43.43659115 -3.90704855 41.84982146 -3.92382812 40.26318359 C-3.94525518 37.84630962 -3.92399631 35.43240747 -3.8984375 33.015625 C-3.90108096 31.46744141 -3.90620631 29.91925966 -3.9140625 28.37109375 C-3.90596558 27.65530151 -3.89786865 26.93950928 -3.88952637 26.20202637 C-3.98342183 21.13137114 -5.30105393 18.27007431 -8.4453125 14.33984375 C-11.6094402 11.58137344 -14.7634776 10.45141673 -18.8828125 9.77734375 C-23.49534807 10.50563884 -27.01909016 12.13707069 -30.4453125 15.33984375 Z " fill="#000000" transform="translate(342.4453125,168.66015625)"/>
<path d="M0 0 C1.69355774 1.14509583 1.69355774 1.14509583 3 3 C3.36076355 5.90434265 3.36076355 5.90434265 3.34057617 9.4909668 C3.34123329 10.47185776 3.34123329 10.47185776 3.34190369 11.4725647 C3.33981539 13.63175423 3.31648388 15.79016505 3.29296875 17.94921875 C3.28737291 19.44708329 3.28310275 20.94495332 3.28010559 22.44282532 C3.2686558 26.38358746 3.23918778 30.32401745 3.20599365 34.26464844 C3.17529548 38.28641262 3.16160082 42.30823053 3.14648438 46.33007812 C3.11431793 54.22020444 3.06312028 62.11006089 3 70 C4.24136719 69.94199219 5.48273438 69.88398438 6.76171875 69.82421875 C8.40360814 69.77730762 10.04553832 69.73180891 11.6875 69.6875 C12.50412109 69.64560547 13.32074219 69.60371094 14.16210938 69.56054688 C18.5707075 69.471304 20.41612373 69.55984712 24.046875 72.296875 C26 75 26 75 26.5625 78.5625 C25.90477046 82.58195832 25.13969601 83.51794977 22 86 C19.49584961 86.50793457 19.49584961 86.50793457 16.65234375 86.51757812 C15.05048218 86.53649109 15.05048218 86.53649109 13.41625977 86.55578613 C12.26826904 86.54768921 11.12027832 86.53959229 9.9375 86.53125 C8.16234009 86.53699036 8.16234009 86.53699036 6.35131836 86.54284668 C3.84976348 86.54556809 1.34818026 86.53819103 -1.15332031 86.52148438 C-4.98567049 86.50008003 -8.81614574 86.52128045 -12.6484375 86.546875 C-15.07812914 86.54423177 -17.50781962 86.53910689 -19.9375 86.53125 C-21.65948608 86.54339539 -21.65948608 86.54339539 -23.41625977 86.55578613 C-24.48416748 86.54317749 -25.5520752 86.53056885 -26.65234375 86.51757812 C-27.59070068 86.51439575 -28.52905762 86.51121338 -29.49584961 86.50793457 C-32.77335712 85.8431345 -33.96626305 84.60952942 -36 82 C-36.5625 78.5625 -36.5625 78.5625 -36 75 C-34.35 73.35 -32.7 71.7 -31 70 C-25.06 70 -19.12 70 -13 70 C-13.33 56.47 -13.66 42.94 -14 29 C-17.96 32.96 -21.92 36.92 -26 41 C-29.05693322 42.52846661 -31.62984547 42.23242445 -35 42 C-37.375 40.9375 -37.375 40.9375 -39 39 C-40.125 35.8125 -40.125 35.8125 -40 32 C-36.20633347 24.93945272 -29.58571831 19.27879062 -23.94042969 13.6796875 C-22.36412451 12.11419914 -20.79891564 10.53817416 -19.234375 8.9609375 C-18.22720391 7.9550865 -17.2194134 6.94985527 -16.2109375 5.9453125 C-15.30649902 5.04312988 -14.40206055 4.14094727 -13.47021484 3.21142578 C-8.79582716 -0.97325534 -6.19672767 -1.46468109 0 0 Z " fill="#000000" transform="translate(260,164)"/>
<path d="M0 0 C2.05938216 1.57885966 2.84571211 2.69142423 4 5 C4.09160337 7.06292985 4.1175118 9.12888885 4.11352539 11.19384766 C4.11344986 12.49504547 4.11337433 13.79624329 4.11329651 15.13687134 C4.10818947 16.56260211 4.10297347 17.9883325 4.09765625 19.4140625 C4.09579147 20.86851961 4.09436785 22.32297734 4.09336853 23.7774353 C4.08954805 27.60792776 4.07972176 31.43838237 4.06866455 35.26885986 C4.05844035 39.17663053 4.05386874 43.08440731 4.04882812 46.9921875 C4.03809908 54.6614756 4.02102828 62.3307325 4 70 C5.16917969 69.95359375 6.33835938 69.9071875 7.54296875 69.859375 C9.0911202 69.82184406 10.63929939 69.78544531 12.1875 69.75 C12.95642578 69.71648437 13.72535156 69.68296875 14.51757812 69.6484375 C18.50289055 69.58002012 20.50793062 69.69832609 23.98828125 71.83203125 C26.56643965 74.61043497 27 76.22513853 27 80 C24.86956522 84.56521739 24.86956522 84.56521739 22 86 C20.32619917 86.10561807 18.64827553 86.14875365 16.97119141 86.16113281 C15.92315338 86.17074036 14.87511536 86.1803479 13.7953186 86.19024658 C12.09065933 86.1966214 12.09065933 86.1966214 10.3515625 86.203125 C9.18748871 86.20882507 8.02341492 86.21452515 6.82406616 86.22039795 C4.35765495 86.22985722 1.89123104 86.2363856 -0.57519531 86.24023438 C-4.35243729 86.24994201 -8.12913578 86.28095834 -11.90625 86.3125 C-14.29947593 86.31902962 -16.69270575 86.32428025 -19.0859375 86.328125 C-20.21832855 86.3404718 -21.3507196 86.3528186 -22.51742554 86.36553955 C-23.57176788 86.36253845 -24.62611023 86.35953735 -25.71240234 86.35644531 C-26.63902679 86.36009094 -27.56565125 86.36373657 -28.52035522 86.36749268 C-31.50692426 85.92487192 -32.8556541 85.10498792 -35 83 C-35.87281149 79.57109774 -36.32922829 77.10740423 -35.3125 73.6875 C-34 72 -34 72 -30 70 C-24.06 70 -18.12 70 -12 70 C-12.495 49.21 -12.495 49.21 -13 28 C-17.29 32.29 -21.58 36.58 -26 41 C-29.09173752 42.54586876 -31.59429552 42.29359521 -35 42 C-37.4375 40.4375 -37.4375 40.4375 -39 38 C-39.6875 34.75 -39.6875 34.75 -39 31 C-34.25605113 24.19733786 -27.62458921 18.47020458 -21.75512695 12.62475586 C-20.16954204 11.04460356 -18.58946558 9.45908024 -17.00976562 7.87304688 C-16.00032108 6.86426194 -14.99056701 5.85578662 -13.98046875 4.84765625 C-12.61764771 3.4865271 -12.61764771 3.4865271 -11.22729492 2.09790039 C-7.32709449 -1.57571819 -5.17351196 -1.08916041 0 0 Z " fill="#000000" transform="translate(78,164)"/>
</svg>
