<?xml version="1.0" encoding="UTF-8"?>
<svg version="1.1" xmlns="http://www.w3.org/2000/svg" width="512" height="512">
<path d="M0 0 C0.75348023 -0.00265183 1.50696046 -0.00530365 2.28327343 -0.00803584 C4.82846116 -0.01574444 7.37360076 -0.01628861 9.9187994 -0.01688576 C11.75392355 -0.02089936 13.58904681 -0.02533741 15.424169 -0.03016531 C20.4831861 -0.04214819 25.54219365 -0.04778324 30.60122216 -0.05234647 C36.05131573 -0.0582961 41.50139786 -0.06990757 46.95148373 -0.08063698 C60.12206493 -0.10517611 73.29264993 -0.11979059 86.46324697 -0.13269705 C90.18215747 -0.13640795 93.90106759 -0.14038127 97.61997771 -0.14444971 C120.70506529 -0.16968578 143.79015344 -0.19174282 166.87525177 -0.20417786 C172.22423524 -0.20710764 177.57321869 -0.2100667 182.92220211 -0.21308327 C183.5867457 -0.21345418 184.25128929 -0.21382509 184.93597057 -0.21420723 C206.47787068 -0.22636041 228.01968904 -0.2573003 249.56155076 -0.29900479 C272.33632306 -0.34301572 295.11105435 -0.36871319 317.8858704 -0.37409842 C330.30078857 -0.37751403 342.7155778 -0.38928697 355.13045597 -0.42220116 C365.70324273 -0.45018533 376.27587412 -0.46120812 386.84869505 -0.4500057 C392.24336377 -0.44481488 397.63770704 -0.44773366 403.03232861 -0.47247124 C407.9729279 -0.49493775 412.91296748 -0.49424382 417.85357641 -0.47526737 C419.63899026 -0.47246373 421.42444186 -0.47808606 423.20979495 -0.4930803 C432.51389859 -0.56643002 440.85436543 -0.62690736 448.69344234 5.13701439 C450.94734859 7.48857689 450.94734859 7.48857689 452.25594234 9.76201439 C452.71098141 10.51740501 453.16602047 11.27279564 453.63484859 12.05107689 C455.75128487 16.22147161 455.83821295 19.87964052 455.83045673 24.44357204 C455.83310856 25.19705228 455.83576039 25.95053251 455.83849257 26.72684547 C455.84620117 29.2720332 455.84674534 31.81717281 455.84734249 34.36237144 C455.85135609 36.1974956 455.85579414 38.03261886 455.86062205 39.86774105 C455.87260493 44.92675814 455.87823997 49.98576569 455.8828032 55.0447942 C455.88875284 60.49488778 455.90036431 65.94496991 455.91109371 71.39505577 C455.93563284 84.56563698 455.95024732 97.73622198 455.96315378 110.90681902 C455.96686469 114.62572951 455.970838 118.34463963 455.97490644 122.06354976 C456.00014252 145.14863733 456.02219955 168.23372549 456.03463459 191.31882381 C456.03756438 196.66780728 456.04052344 202.01679073 456.04354 207.36577415 C456.04391091 208.03031775 456.04428182 208.69486134 456.04466397 209.37954261 C456.05681714 230.92144272 456.08775704 252.46326108 456.12946153 274.0051228 C456.17347245 296.77989511 456.19916992 319.55462639 456.20455515 342.32944244 C456.20797076 354.74436061 456.2197437 367.15914984 456.25265789 379.57402802 C456.28064207 390.14681478 456.29166486 400.71944617 456.28046243 411.29226709 C456.27527161 416.68693581 456.27819039 422.08127909 456.30292797 427.47590065 C456.32539448 432.41649995 456.32470055 437.35653952 456.3057241 442.29714846 C456.30292046 444.08256231 456.3085428 445.8680139 456.32353704 447.65336699 C456.39688676 456.95747064 456.45736409 465.29793747 450.69344234 473.13701439 C448.34187984 475.39092064 448.34187984 475.39092064 446.06844234 476.69951439 C445.31305172 477.15455345 444.55766109 477.60959251 443.77937984 478.07842064 C439.60898512 480.19485691 435.95081622 480.28178499 431.38688469 480.27402878 C430.63340446 480.2766806 429.87992423 480.27933243 429.10361126 480.28206462 C426.55842353 480.28977322 424.01328393 480.29031739 421.46808529 480.29091454 C419.63296114 480.29492814 417.79783787 480.29936619 415.96271569 480.30419409 C410.90369859 480.31617697 405.84469104 480.32181202 400.78566253 480.32637525 C395.33556895 480.33232488 389.88548683 480.34393635 384.43540096 480.35466576 C371.26481976 480.37920488 358.09423476 480.39381937 344.92363772 480.40672582 C341.20472722 480.41043673 337.4858171 480.41441005 333.76690698 480.41847849 C310.6818194 480.44371456 287.59673125 480.4657716 264.51163292 480.47820663 C259.16264945 480.48113642 253.813666 480.48409548 248.46468258 480.48711205 C247.46786719 480.48766841 247.46786719 480.48766841 246.45091412 480.48823601 C224.90901401 480.50038918 203.36719565 480.53132908 181.82533393 480.57303357 C159.05056163 480.6170445 136.27583034 480.64274196 113.50101429 480.6481272 C101.08609612 480.65154281 88.67130689 480.66331574 76.25642872 480.69622993 C65.68364196 480.72421411 55.11101056 480.7352369 44.53818964 480.72403447 C39.14352092 480.71884366 33.74917765 480.72176243 28.35455608 480.74650002 C23.41395678 480.76896653 18.47391721 480.7682726 13.53330828 480.74929614 C11.74789443 480.74649251 9.96244283 480.75211484 8.17708974 480.76710908 C-1.1270139 480.8404588 -9.46748074 480.90093613 -17.30655766 475.13701439 C-19.56046391 472.78545189 -19.56046391 472.78545189 -20.86905766 470.51201439 C-21.32409672 469.75662376 -21.77913578 469.00123314 -22.24796391 468.22295189 C-24.36440018 464.05255717 -24.45132826 460.39438826 -24.44357204 455.83045673 C-24.44622387 455.0769765 -24.4488757 454.32349627 -24.45160788 453.54718331 C-24.45931648 451.00199558 -24.45986065 448.45685597 -24.4604578 445.91165733 C-24.4644714 444.07653318 -24.46890945 442.24140992 -24.47373736 440.40628773 C-24.48572024 435.34727064 -24.49135528 430.28826309 -24.49591851 425.22923458 C-24.50186815 419.779141 -24.51347962 414.32905887 -24.52420902 408.87897301 C-24.54874815 395.7083918 -24.56336263 382.5378068 -24.57626909 369.36720976 C-24.57998 365.64829926 -24.58395331 361.92938914 -24.58802176 358.21047902 C-24.61325783 335.12539145 -24.63531486 312.04030329 -24.6477499 288.95520496 C-24.65067969 283.60622149 -24.65363875 278.25723804 -24.65665531 272.90825462 C-24.65702622 272.24371103 -24.65739713 271.57916744 -24.65777928 270.89448616 C-24.66993245 249.35258606 -24.70087235 227.8107677 -24.74257684 206.26890598 C-24.78658776 183.49413367 -24.81228523 160.71940238 -24.81767046 137.94458634 C-24.82108608 125.52966816 -24.83285901 113.11487894 -24.8657732 100.70000076 C-24.89375738 90.127214 -24.90478017 79.55458261 -24.89357774 68.98176169 C-24.88838692 63.58709296 -24.8913057 58.19274969 -24.91604328 52.79812813 C-24.93850979 47.85752883 -24.93781586 42.91748926 -24.91883941 37.97688032 C-24.91603578 36.19146647 -24.92165811 34.40601487 -24.93665235 32.62066179 C-25.01000207 23.31655814 -25.0704794 14.9760913 -19.30655766 7.13701439 C-16.95499516 4.88310814 -16.95499516 4.88310814 -14.68155766 3.57451439 C-13.54847172 2.8919558 -13.54847172 2.8919558 -12.39249516 2.19560814 C-8.22210043 0.07917187 -4.56393153 -0.00775621 0 0 Z M-6.23498785 18.20858419 C-7.8759863 21.16177581 -7.71722558 24.07939885 -7.68408108 27.36942101 C-7.6884414 28.11486817 -7.69280172 28.86031533 -7.69729418 29.62835181 C-7.70831241 32.14631318 -7.69779818 34.66373402 -7.68750858 37.18169212 C-7.69096256 38.99705824 -7.69572536 40.81242226 -7.70169032 42.62778187 C-7.71426576 47.63196106 -7.70800032 52.63596961 -7.69873166 57.64014959 C-7.69196819 63.03080967 -7.70240893 68.42143957 -7.71067142 73.81209373 C-7.72403992 84.37857738 -7.72111717 94.94499724 -7.7124335 105.51148343 C-7.70566959 114.09596548 -7.70473462 122.68042961 -7.70800495 131.26491356 C-7.70846465 132.48479987 -7.70892435 133.70468617 -7.70939798 134.96153873 C-7.71035712 137.43939694 -7.71132975 139.91725515 -7.71231575 142.39511335 C-7.72087878 165.65234927 -7.71102122 188.90954976 -7.69491465 212.16677988 C-7.68151065 232.1402829 -7.68383848 252.11370649 -7.69767094 272.0872097 C-7.71371066 295.25890178 -7.72005472 318.43056278 -7.71083415 341.60225964 C-7.70987846 344.07121149 -7.70893535 346.54016335 -7.70800495 349.00911522 C-7.70754212 350.22401664 -7.7070793 351.43891806 -7.70660245 352.69063467 C-7.70400773 361.26886866 -7.70839391 369.847083 -7.71544361 378.42531395 C-7.72384097 388.87348711 -7.72161574 399.32159262 -7.70560138 409.76975799 C-7.69769483 415.10474037 -7.69466747 420.4396098 -7.70454884 425.77459145 C-7.71344711 430.65242291 -7.70864381 435.53003605 -7.69261618 440.40784752 C-7.68924762 442.17832221 -7.69100857 443.94881511 -7.69824354 445.71927822 C-7.70728606 448.11465521 -7.69809205 450.50927141 -7.68408108 452.90460777 C-7.69110458 453.60178118 -7.69812807 454.29895459 -7.70536441 455.01725447 C-7.67394478 457.68072581 -7.54162577 459.71397853 -6.23498785 462.06544459 C-3.28179623 463.70644303 -0.36417319 463.54768231 2.92584896 463.51453781 C3.67129613 463.51889813 4.41674329 463.52325846 5.18477976 463.52775091 C7.70274113 463.53876914 10.22016198 463.52825492 12.73812008 463.51796532 C14.5534862 463.52141929 16.36885022 463.5261821 18.18420982 463.53214705 C23.18838902 463.54472249 28.19239757 463.53845705 33.19657755 463.52918839 C38.58723763 463.52242492 43.97786753 463.53286567 49.36852169 463.54112816 C59.93500534 463.55449665 70.5014252 463.55157391 81.06791139 463.54289024 C89.65239344 463.53612633 98.23685756 463.53519136 106.82134151 463.53846169 C108.04122782 463.53892138 109.26111413 463.53938108 110.51796669 463.53985471 C112.9958249 463.54081385 115.4736831 463.54178649 117.9515413 463.54277249 C141.20877722 463.55133551 164.46597772 463.54147795 187.72320783 463.52537139 C207.69671086 463.51196738 227.67013444 463.51429522 247.64363766 463.52812767 C270.81532974 463.54416739 293.98699074 463.55051145 317.15868759 463.54129088 C319.62763945 463.54033519 322.09659131 463.53939208 324.56554317 463.53846169 C326.3878953 463.53776745 326.3878953 463.53776745 328.24706262 463.53705918 C336.82529661 463.53446446 345.40351096 463.53885065 353.98174191 463.54590034 C364.42991506 463.5542977 374.87802057 463.55207248 385.32618594 463.53605811 C390.66116832 463.52815157 395.99603775 463.52512421 401.3310194 463.53500557 C406.20885086 463.54390384 411.086464 463.53910055 415.96427548 463.52307291 C417.73475017 463.51970435 419.50524306 463.5214653 421.27570617 463.52870028 C423.67108317 463.53774279 426.06569937 463.52854878 428.46103573 463.51453781 C429.50679584 463.52507306 429.50679584 463.52507306 430.57368243 463.53582114 C433.23715377 463.50440151 435.27040649 463.3720825 437.62187254 462.06544459 C439.26287099 459.11225297 439.10411027 456.19462993 439.07096577 452.90460777 C439.07532609 452.15916061 439.07968641 451.41371344 439.08417886 450.64567697 C439.0951971 448.1277156 439.08468287 445.61029476 439.07439327 443.09233665 C439.07784725 441.27697054 439.08261005 439.46160651 439.08857501 437.64624691 C439.10115045 432.64206771 439.09488501 427.63805916 439.08561635 422.63387918 C439.07885287 417.2432191 439.08929362 411.8525892 439.09755611 406.46193504 C439.11092461 395.8954514 439.10800186 385.32903153 439.09931819 374.76254535 C439.09255428 366.17806329 439.09161931 357.59359917 439.09488964 349.00911522 C439.09534934 347.78922891 439.09580904 346.5693426 439.09628267 345.31249005 C439.0972418 342.83463184 439.09821444 340.35677363 439.09920044 337.87891543 C439.10776346 314.62167951 439.09790591 291.36447901 439.08179934 268.1072489 C439.06839534 248.13374588 439.07072317 228.16032229 439.08455563 208.18681908 C439.10059534 185.015127 439.10693941 161.843466 439.09771883 138.67176914 C439.09676315 136.20281729 439.09582003 133.73386542 439.09488964 131.26491356 C439.0941954 129.44256143 439.0941954 129.44256143 439.09348714 127.58339411 C439.09089242 119.00516012 439.0952786 110.42694578 439.1023283 101.84871483 C439.11072566 91.40054167 439.10850043 80.95243616 439.09248607 70.50427079 C439.08457952 65.16928841 439.08155216 59.83441898 439.09143353 54.49943733 C439.1003318 49.62160587 439.0955285 44.74399273 439.07950087 39.86618125 C439.07613231 38.09570657 439.07789326 36.32521367 439.08512823 34.55475056 C439.09417075 32.15937356 439.08497674 29.76475736 439.07096577 27.36942101 C439.07798927 26.67224759 439.08501276 25.97507418 439.0922491 25.25677431 C439.06082946 22.59330296 438.92851046 20.56005025 437.62187254 18.20858419 C434.66868092 16.56758575 431.75105788 16.72634646 428.46103573 16.75949097 C427.34286498 16.75295048 427.34286498 16.75295048 426.20210493 16.74627787 C423.68414356 16.73525964 421.16672271 16.74577386 418.64876461 16.75606346 C416.83339849 16.75260949 415.01803447 16.74784668 413.20267487 16.74188173 C408.19849567 16.72930629 403.19448712 16.73557172 398.19030714 16.74484038 C392.79964706 16.75160386 387.40901716 16.74116311 382.018363 16.73290062 C371.45187935 16.71953213 360.88545949 16.72245487 350.3189733 16.73113854 C341.73449125 16.73790245 333.15002712 16.73883742 324.56554317 16.73556709 C323.34565687 16.73510739 322.12577056 16.73464769 320.868918 16.73417407 C318.39105979 16.73321493 315.91320159 16.73224229 313.43534338 16.73125629 C290.17810747 16.72269327 266.92090697 16.73255082 243.66367686 16.74865739 C223.69017383 16.7620614 203.71675025 16.75973356 183.74324703 16.74590111 C160.57155495 16.72986139 137.39989395 16.72351733 114.2281971 16.7327379 C111.75924524 16.73369359 109.29029338 16.7346367 106.82134151 16.73556709 C104.99898939 16.73626133 104.99898939 16.73626133 103.13982207 16.7369696 C94.56158808 16.73956432 85.98337373 16.73517813 77.40514278 16.72812843 C66.95696963 16.71973108 56.50886412 16.7219563 46.06069875 16.73797067 C40.72571637 16.74587721 35.39084694 16.74890457 30.05586529 16.73902321 C25.17803383 16.73012494 20.30042069 16.73492823 15.42260921 16.75095586 C13.65213452 16.75432443 11.88164163 16.75256347 10.11117852 16.7453285 C7.71580152 16.73628599 5.32118532 16.74548 2.92584896 16.75949097 C2.22867555 16.75246747 1.53150214 16.74544397 0.81320226 16.73820764 C-1.85026908 16.76962727 -3.8835218 16.90194628 -6.23498785 18.20858419 Z " fill="#000000" transform="translate(40.30655765533447,15.862985610961914)"/>
<path d="M0 0 C1.84597778 0.00737183 1.84597778 0.00737183 3.72924805 0.01489258 C12.93778832 0.13323868 21.35940089 0.86709022 30.25 3.3125 C31.46945312 3.64121094 32.68890625 3.96992187 33.9453125 4.30859375 C63.4837931 13.21947151 87.80588849 33.88624819 102.47265625 60.8203125 C116.14395053 87.68215224 120.08288939 119.18765477 111.25 148.3125 C110.93651611 149.34673096 110.93651611 149.34673096 110.61669922 150.40185547 C105.95644328 165.15060554 98.46000152 178.69216753 88.25 190.3125 C87.58742188 191.11816406 86.92484375 191.92382812 86.2421875 192.75390625 C68.83085516 213.28128884 41.1313903 227.89040421 14.25 230.3125 C-18.86111748 231.74201547 -47.80155841 225.67969949 -73.75 204.3125 C-74.67425781 203.55324219 -75.59851563 202.79398438 -76.55078125 202.01171875 C-98.01557891 183.46151879 -111.7609578 156.48882668 -114.75 128.3125 C-117.03892096 92.9214473 -107.66887507 63.11573042 -84.4375 36.1875 C-62.54043471 12.50679161 -31.9890693 -0.15173203 0 0 Z M-75.75 52.3125 C-90.08593342 69.88652926 -98.19554219 91.92026231 -98.0625 114.5625 C-98.05758545 115.56466553 -98.0526709 116.56683105 -98.04760742 117.59936523 C-97.64934515 143.00849807 -87.10720015 167.0478191 -69.1875 185.0625 C-68.04942814 186.15398412 -66.90676025 187.240842 -65.75 188.3125 C-62.81288134 186.15285393 -60.45563567 183.99901011 -58.25 181.125 C-51.75875405 173.32544091 -41.65297608 167.89051612 -32.75 163.3125 C-33.74 162.3225 -33.74 162.3225 -34.75 161.3125 C-35.20503906 160.85230469 -35.66007812 160.39210937 -36.12890625 159.91796875 C-37.2831883 158.77481231 -38.46040074 157.65461348 -39.65234375 156.55078125 C-50.15776883 146.60994715 -55.95280777 133.84112613 -56.953125 119.375 C-57.20703526 102.78619627 -53.0105155 88.64544555 -41.75 76.3125 C-41.75 75.6525 -41.75 74.9925 -41.75 74.3125 C-41.16476563 74.04050781 -40.57953125 73.76851562 -39.9765625 73.48828125 C-37.78850838 72.33283513 -36.04721302 71.05003986 -34.125 69.5 C-22.50246421 60.74036825 -8.29904289 56.71565383 6.25 58.3125 C18.62709606 60.41319979 29.47663464 64.13481894 38.65625 72.95703125 C40.155217 74.52845506 40.155217 74.52845506 42.25 74.3125 C42.51167969 74.88226563 42.77335938 75.45203125 43.04296875 76.0390625 C44.33942339 78.48092853 45.87706514 80.49755582 47.5625 82.6875 C56.43237738 95.18680529 58.8767253 110.63592092 56.7890625 125.62109375 C53.63312319 141.08519638 45.69106734 152.7424482 33.25 162.3125 C36.01557043 164.46560392 38.83002626 166.26922503 41.875 168 C51.06288096 173.48570539 58.43337617 180.08685336 65.25 188.3125 C83.50454643 173.41082945 95.53285676 150.76291852 98.25 127.3125 C100.43196915 99.46732695 93.57261751 73.32880676 75.375 51.68359375 C58.91910878 33.32196513 36.35429849 19.30314922 11.25 17.3125 C-23.11235482 15.59299556 -52.42908088 26.54505468 -75.75 52.3125 Z M-32.25390625 90.14453125 C-38.56857801 99.29503472 -42.00641614 109.1618068 -40.75 120.3125 C-38.04715455 132.93601681 -32.44769988 142.85012273 -21.75 150.3125 C-10.67867235 155.98902041 0.25535297 158.41781281 12.375 154.6875 C22.84213673 150.80627488 31.64693636 144.33981519 36.82421875 134.2421875 C41.86536105 122.48433698 42.6717119 112.73361232 38.578125 100.49609375 C34.02044882 89.57107584 26.35934016 82.32481786 15.796875 77.34765625 C-1.45800256 70.33455418 -20.56963936 75.65828189 -32.25390625 90.14453125 Z M-48.75 195.3125 C-50.05069955 197.48903927 -50.05069955 197.48903927 -50.75 199.3125 C-28.65556012 212.27328496 -2.7498953 217.81066871 22.625 211.625 C32.82463486 208.92268927 42.19783155 204.68436764 51.25 199.3125 C46.26555855 188.02121426 33.852725 181.37483161 22.89453125 176.9609375 C-3.00926589 168.01527836 -30.45867946 174.93255116 -48.75 195.3125 Z " fill="#000000" transform="translate(255.75,55.6875)"/>
<path d="M0 0 C1.97941977 -0.00576172 1.97941977 -0.00576172 3.99882782 -0.01163983 C5.47219083 -0.01085954 6.9455538 -0.00998074 8.4189167 -0.00901413 C9.97711769 -0.0115969 11.53531802 -0.01460981 13.09351742 -0.01801753 C17.38688452 -0.02610099 21.68023492 -0.02787785 25.97360873 -0.028615 C30.5994663 -0.03046319 35.22531514 -0.03800928 39.85116768 -0.04475021 C49.97083653 -0.05834307 60.09050143 -0.06435958 70.2101779 -0.06876087 C76.52551769 -0.07152138 82.84085594 -0.07575835 89.15619469 -0.08026505 C106.63213886 -0.09245838 124.10808181 -0.10275794 141.58403015 -0.10614014 C143.26237097 -0.10646949 143.26237097 -0.10646949 144.97461767 -0.10680549 C146.09622641 -0.10702377 147.21783515 -0.10724204 148.37343204 -0.10746694 C150.64633489 -0.10791041 152.91923773 -0.10835697 155.19214058 -0.10880661 C156.31958491 -0.10902804 157.44702923 -0.10924947 158.60863854 -0.10947761 C176.88595868 -0.11342742 195.163239 -0.13088672 213.44054376 -0.15416613 C232.19322025 -0.17785881 250.94587675 -0.19034102 269.69856846 -0.19150805 C280.23254891 -0.19242593 290.76647746 -0.19820653 301.30044365 -0.21632767 C310.26853845 -0.23170048 319.23656531 -0.23686579 328.20467077 -0.22858956 C332.78246461 -0.22467319 337.3601215 -0.22566064 341.93789864 -0.23964691 C346.12624483 -0.25232669 350.31435035 -0.25124081 354.50269593 -0.2390562 C356.02018409 -0.23708889 357.53768896 -0.24022503 359.05515359 -0.24890056 C361.11414077 -0.25992944 363.17226899 -0.2525512 365.23123169 -0.24050903 C366.37598115 -0.24110612 367.52073061 -0.24170321 368.70016944 -0.24231839 C372.13926474 0.18031466 373.98410392 1.06257914 376.74145699 3.13142776 C378.90278924 6.37342615 379.00271729 7.32306117 379.04785347 11.07429886 C379.06384087 12.07899216 379.07982826 13.08368546 379.09630013 14.11882401 C379.10434418 15.74541443 379.10434418 15.74541443 379.11255074 17.40486526 C379.12157921 18.52076035 379.13060768 19.63665543 379.13990974 20.78636551 C379.15442568 23.14842922 379.1633023 25.51053327 379.16699409 27.8726387 C379.17888853 31.48563309 379.22806241 35.09691905 379.27856636 38.70955276 C379.28803056 41.00381525 379.29526561 43.29808824 379.30005074 45.59236526 C379.31958305 46.67271042 379.33911537 47.75305557 379.35923958 48.86613846 C379.35316185 49.87713608 379.34708412 50.8881337 379.34082222 51.92976761 C379.34589287 52.81562546 379.35096352 53.70148331 379.35618782 54.61418533 C378.45787436 58.29266157 376.62714096 59.73810041 373.74145699 62.13142776 C370.67682266 62.75817358 370.67682266 62.75817358 367.17434883 62.76063347 C366.52511884 62.76790067 365.87588886 62.77516788 365.20698524 62.7826553 C363.0279451 62.80092701 360.8506605 62.78354284 358.67163277 62.76634598 C357.09519805 62.77210639 355.51877004 62.78004698 353.94235611 62.7899822 C349.60772245 62.81089007 345.27363789 62.80052266 340.93900204 62.78505111 C336.26542913 62.77375756 331.59195192 62.79119037 326.9183979 62.80495071 C317.76185874 62.82720902 308.60552425 62.82237039 299.44897699 62.80788751 C292.00871313 62.79660546 284.56850672 62.79505989 277.12823677 62.80050659 C275.54113638 62.80165584 275.54113638 62.80165584 273.92197335 62.8028283 C271.77267566 62.8044269 269.62337798 62.80604796 267.47408032 62.80769126 C247.30987267 62.82195636 227.14577859 62.80554409 206.98158956 62.77868943 C189.67167077 62.75634998 172.36191962 62.76022989 155.05200386 62.78328323 C134.96102003 62.81002779 114.8701358 62.82058299 94.77913666 62.80522192 C92.63765019 62.80362913 90.4961637 62.80205728 88.3546772 62.80050659 C87.30096558 62.79973521 86.24725395 62.79896384 85.16161168 62.79816908 C77.72842467 62.79384805 70.29530073 62.80114732 62.86212349 62.81290436 C53.80618099 62.82691296 44.75045524 62.82316397 35.69453764 62.79650064 C31.07210387 62.78334034 26.45003175 62.77824762 21.82760048 62.7947464 C17.59845139 62.80961338 13.37000018 62.80151211 9.14091468 62.77485864 C7.60869086 62.76925977 6.07640845 62.77214558 4.54422212 62.78423758 C2.46482565 62.79939305 0.38783494 62.78390793 -1.69143486 62.76063347 C-2.84725122 62.75982171 -4.00306759 62.75900995 -5.19390869 62.75817358 C-9.20568313 61.93772893 -10.71191575 60.2655843 -13.25854301 57.13142776 C-13.8867321 54.58295059 -13.8867321 54.58295059 -13.88964653 51.85383987 C-13.90217964 50.82604919 -13.91471275 49.79825851 -13.92762566 48.73932266 C-13.91436745 47.64024078 -13.90110924 46.54115891 -13.88744926 45.40877151 C-13.8910672 43.70232216 -13.8910672 43.70232216 -13.89475822 41.96139908 C-13.89377997 39.5599506 -13.88039181 37.15847951 -13.85546684 34.75716019 C-13.82113146 31.07840437 -13.83481791 27.40204671 -13.85424614 23.72322464 C-13.84734856 21.38923003 -13.83767698 19.05524162 -13.82494926 16.72127151 C-13.82990913 15.62016541 -13.834869 14.5190593 -13.83997917 13.38458633 C-13.82414284 12.35994781 -13.8083065 11.3353093 -13.79199028 10.27962112 C-13.7857917 9.37981018 -13.77959312 8.47999924 -13.77320671 7.5529213 C-13.0931351 4.35318328 -11.77201016 3.16251574 -9.25854301 1.13142776 C-5.94430231 0.02668086 -3.49168237 0.00380311 0 0 Z M3.74145699 17.13142776 C3.74145699 26.37142776 3.74145699 35.61142776 3.74145699 45.13142776 C121.88145699 45.13142776 240.02145699 45.13142776 361.74145699 45.13142776 C361.74145699 35.89142776 361.74145699 26.65142776 361.74145699 17.13142776 C243.60145699 17.13142776 125.46145699 17.13142776 3.74145699 17.13142776 Z " fill="#000000" transform="translate(73.25854301452637,300.8685722351074)"/>
<path d="M0 0 C1.20294205 -0.0112793 2.40588409 -0.02255859 3.64527893 -0.03417969 C4.96176926 -0.02608276 6.27825958 -0.01798584 7.63464355 -0.00964355 C9.03759996 -0.01506476 10.44055067 -0.02218741 11.8434906 -0.03088379 C15.65139406 -0.0491207 19.45886408 -0.04204838 23.26677513 -0.02936745 C27.25142969 -0.01924156 31.23604711 -0.02863197 35.22070312 -0.03491211 C41.91229924 -0.04218974 48.60371878 -0.03259787 55.29528809 -0.0135498 C63.03210301 0.00821929 70.7684963 0.00116799 78.505301 -0.02085543 C85.14746412 -0.03900623 91.7895003 -0.04156936 98.4316802 -0.03110075 C102.39898687 -0.02486401 106.36609534 -0.024035 110.33338928 -0.0372467 C114.06326093 -0.04880008 117.79258891 -0.0407896 121.52240181 -0.01766968 C123.54454424 -0.00985586 125.56673265 -0.02174287 127.58885193 -0.03417969 C129.393265 -0.01726074 129.393265 -0.01726074 131.23413086 0 C132.27977959 0.0015081 133.32542831 0.0030162 134.40276337 0.00457001 C137.82027379 0.63834385 139.00553567 1.79745226 141.11706543 4.50793457 C141.63172913 7.2019043 141.63172913 7.2019043 141.6505127 10.3145752 C141.6742672 12.06659241 141.6742672 12.06659241 141.69850159 13.85400391 C141.69354172 15.11136353 141.68858185 16.36872314 141.68347168 17.66418457 C141.68967026 18.95860474 141.69586884 20.2530249 141.70225525 21.58666992 C141.71265264 24.32378955 141.70810798 27.06038908 141.69348145 29.79748535 C141.67628579 33.30183848 141.69979793 36.80455314 141.73497105 40.30872345 C141.76223423 43.65647406 141.75220991 47.003828 141.74597168 50.35168457 C141.75922989 51.60904419 141.7724881 52.86640381 141.78614807 54.16186523 C141.77361496 55.32987671 141.76108185 56.49788818 141.74816895 57.70129395 C141.74720718 58.72847534 141.74624542 59.75565674 141.74525452 60.81396484 C140.87552854 64.54375815 139.27604724 65.43056515 136.11706543 67.50793457 C133.29533291 68.01129913 133.29533291 68.01129913 130.15184021 68.01586914 C128.95593765 68.02714844 127.7600351 68.03842773 126.52789307 68.05004883 C124.5725766 68.03790344 124.5725766 68.03790344 122.57775879 68.0255127 C121.18450693 68.03093562 119.7912608 68.03805924 118.39802551 68.04675293 C114.62117058 68.06496768 110.84475334 68.05792713 107.06789088 68.04523659 C103.11393867 68.03510123 99.16002364 68.04450356 95.20606995 68.05078125 C88.56752805 68.05805526 81.92916426 68.04847561 75.29064941 68.02941895 C67.61572858 68.00764158 59.94123265 68.0147086 52.26632208 68.03672457 C45.67509351 68.05487497 39.08399285 68.05743896 32.49274737 68.04696989 C28.55675418 68.04073408 24.62096075 68.03990175 20.68498039 68.05311584 C16.98546255 68.06466897 13.28649284 68.05665925 9.58703423 68.03353882 C7.58160023 68.02572551 5.57611988 68.0376116 3.57070923 68.05004883 C1.78108513 68.03312988 1.78108513 68.03312988 -0.04469299 68.01586914 C-1.08166856 68.01436104 -2.11864412 68.01285294 -3.18704319 68.01129913 C-6.5910514 67.37571822 -7.7774861 66.20676336 -9.88293457 63.50793457 C-10.39086914 60.81396484 -10.39086914 60.81396484 -10.4005127 57.70129395 C-10.41312134 56.53328247 -10.42572998 55.365271 -10.4387207 54.16186523 C-10.43062378 52.90450562 -10.42252686 51.647146 -10.41418457 50.35168457 C-10.41801147 49.0572644 -10.42183838 47.76284424 -10.42578125 46.42919922 C-10.43167145 43.69206611 -10.42312996 40.95545599 -10.40441895 38.21838379 C-10.38162826 34.71421431 -10.39475411 31.21127023 -10.4187088 27.70714569 C-10.43665911 24.35939436 -10.42408217 21.0119707 -10.41418457 17.66418457 C-10.42228149 16.40682495 -10.43037842 15.14946533 -10.4387207 13.85400391 C-10.42611206 12.68599243 -10.41350342 11.51798096 -10.4005127 10.3145752 C-10.39733032 9.2873938 -10.39414795 8.2602124 -10.39086914 7.2019043 C-9.28123092 1.31663489 -5.52670603 0.00797097 0 0 Z M7.11706543 17.50793457 C7.11706543 28.39793457 7.11706543 39.28793457 7.11706543 50.50793457 C45.72706543 50.50793457 84.33706543 50.50793457 124.11706543 50.50793457 C124.11706543 39.61793457 124.11706543 28.72793457 124.11706543 17.50793457 C85.50706543 17.50793457 46.89706543 17.50793457 7.11706543 17.50793457 Z " fill="#000000" transform="translate(308.8829345703125,388.4920654296875)"/>
<path d="M0 0 C1.20294205 -0.0112793 2.40588409 -0.02255859 3.64527893 -0.03417969 C4.96176926 -0.02608276 6.27825958 -0.01798584 7.63464355 -0.00964355 C9.03759996 -0.01506476 10.44055067 -0.02218741 11.8434906 -0.03088379 C15.65139406 -0.0491207 19.45886408 -0.04204838 23.26677513 -0.02936745 C27.25142969 -0.01924156 31.23604711 -0.02863197 35.22070312 -0.03491211 C41.91229924 -0.04218974 48.60371878 -0.03259787 55.29528809 -0.0135498 C63.03210301 0.00821929 70.7684963 0.00116799 78.505301 -0.02085543 C85.14746412 -0.03900623 91.7895003 -0.04156936 98.4316802 -0.03110075 C102.39898687 -0.02486401 106.36609534 -0.024035 110.33338928 -0.0372467 C114.06326093 -0.04880008 117.79258891 -0.0407896 121.52240181 -0.01766968 C123.54454424 -0.00985586 125.56673265 -0.02174287 127.58885193 -0.03417969 C129.393265 -0.01726074 129.393265 -0.01726074 131.23413086 0 C132.27977959 0.0015081 133.32542831 0.0030162 134.40276337 0.00457001 C137.82027379 0.63834385 139.00553567 1.79745226 141.11706543 4.50793457 C141.63172913 7.2019043 141.63172913 7.2019043 141.6505127 10.3145752 C141.6742672 12.06659241 141.6742672 12.06659241 141.69850159 13.85400391 C141.69354172 15.11136353 141.68858185 16.36872314 141.68347168 17.66418457 C141.68967026 18.95860474 141.69586884 20.2530249 141.70225525 21.58666992 C141.71265264 24.32378955 141.70810798 27.06038908 141.69348145 29.79748535 C141.67628579 33.30183848 141.69979793 36.80455314 141.73497105 40.30872345 C141.76223423 43.65647406 141.75220991 47.003828 141.74597168 50.35168457 C141.75922989 51.60904419 141.7724881 52.86640381 141.78614807 54.16186523 C141.77361496 55.32987671 141.76108185 56.49788818 141.74816895 57.70129395 C141.74720718 58.72847534 141.74624542 59.75565674 141.74525452 60.81396484 C140.87579297 64.54262414 139.27383632 65.42997062 136.11706543 67.50793457 C133.31374359 68.01129913 133.31374359 68.01129913 130.1965332 68.01586914 C129.01048996 68.02714844 127.82444672 68.03842773 126.60246277 68.05004883 C125.30984024 68.0419519 124.01721771 68.03385498 122.6854248 68.0255127 C121.30364749 68.03093574 119.92187596 68.03805943 118.54011536 68.04675293 C114.79418284 68.06496794 111.04869164 68.05792659 107.30275154 68.04523659 C103.37996367 68.03509934 99.45721321 68.04450427 95.53442383 68.05078125 C88.94715603 68.05805557 82.36006769 68.04847571 75.77282715 68.02941895 C68.16040905 68.00765048 60.5484195 68.01470201 52.93601179 68.03672457 C46.39657155 68.05488481 39.85726022 68.05743388 33.31780291 68.04696989 C29.41363534 68.04073834 25.50966911 68.03988987 21.60551453 68.05311584 C17.93471942 68.06468296 14.26447605 68.05663365 10.59374046 68.03353882 C8.60639069 68.02573909 6.61899418 68.03760032 4.63166809 68.05004883 C3.44562485 68.03876953 2.2595816 68.02749023 1.03759766 68.01586914 C0.00891823 68.01436104 -1.0197612 68.01285294 -2.07961273 68.01129913 C-5.63761361 67.37242438 -7.32977164 66.02272599 -9.88293457 63.50793457 C-10.51112366 60.81396484 -10.51112366 60.81396484 -10.51403809 57.70129395 C-10.5265712 56.53328247 -10.53910431 55.365271 -10.55201721 54.16186523 C-10.538759 52.90450562 -10.52550079 51.647146 -10.51184082 50.35168457 C-10.51425278 49.0572644 -10.51666473 47.76284424 -10.51914978 46.42919922 C-10.52200541 43.69194074 -10.50733222 40.95550161 -10.4798584 38.21838379 C-10.44577371 34.71417293 -10.45179475 31.21142669 -10.47052097 27.70714569 C-10.48364617 24.35934689 -10.46537234 21.01197317 -10.44934082 17.66418457 C-10.45430069 16.40682495 -10.45926056 15.14946533 -10.46437073 13.85400391 C-10.44853439 12.68599243 -10.43269806 11.51798096 -10.41638184 10.3145752 C-10.41018326 9.2873938 -10.40398468 8.2602124 -10.39759827 7.2019043 C-9.2738079 1.31950526 -5.5310735 0.00797727 0 0 Z M7.11706543 17.50793457 C7.11706543 28.39793457 7.11706543 39.28793457 7.11706543 50.50793457 C45.72706543 50.50793457 84.33706543 50.50793457 124.11706543 50.50793457 C124.11706543 39.61793457 124.11706543 28.72793457 124.11706543 17.50793457 C85.50706543 17.50793457 46.89706543 17.50793457 7.11706543 17.50793457 Z " fill="#000000" transform="translate(71.8829345703125,388.4920654296875)"/>
<path d="M0 0 C2.65686035 1.24169922 2.65686035 1.24169922 5 4 C5.77179145 8.15764133 5.66132594 12.29027662 5.61523438 16.5078125 C5.62078339 17.78944275 5.6263324 19.071073 5.63204956 20.39154053 C5.64629665 23.90414283 5.62923794 27.41596224 5.60576439 30.92848969 C5.58565568 34.60482998 5.59153495 38.28113776 5.59387207 41.95751953 C5.5938185 48.13131623 5.57406182 54.30480689 5.54199219 60.47851562 C5.50509918 67.61544528 5.49631657 74.75197402 5.5032897 81.88898659 C5.50959575 88.75545285 5.49883858 95.62178168 5.47932434 102.48822021 C5.47115119 105.40999307 5.46844063 108.33169567 5.47001648 111.253479 C5.47105891 115.33325432 5.44688213 119.41250124 5.41992188 123.4921875 C5.42285248 124.7058197 5.42578308 125.9194519 5.42880249 127.16986084 C5.4174527 128.28024719 5.40610291 129.39063354 5.39440918 130.53466797 C5.39068047 131.49919891 5.38695175 132.46372986 5.38311005 133.45748901 C4.92848542 136.47460675 4.12759621 137.83363972 2 140 C-1.85185224 141.06995896 -4.07497251 141.370011 -7.8125 139.875 C-10.93170917 137.20139214 -11.85217914 134.49232719 -12.25447559 130.43093872 C-12.25652846 129.51287445 -12.25858133 128.59481018 -12.26069641 127.64892578 C-12.26778122 126.58909485 -12.27486603 125.52926392 -12.28216553 124.43731689 C-12.27968811 123.28495544 -12.27721069 122.13259399 -12.2746582 120.9453125 C-12.27976913 119.72366394 -12.28488007 118.50201538 -12.29014587 117.24334717 C-12.30165246 113.90035703 -12.30411749 110.55761508 -12.30158257 107.2146225 C-12.30051141 104.42132473 -12.30539983 101.62804973 -12.310188 98.83475685 C-12.32127403 92.24463821 -12.32172535 85.65457657 -12.31567383 79.06445312 C-12.30963066 72.27007422 -12.32195568 65.47590222 -12.3432439 58.68155861 C-12.36086418 52.84277338 -12.36686069 47.00405399 -12.36360615 41.16524315 C-12.3617942 37.68027491 -12.36442076 34.19545437 -12.37832069 30.71051025 C-12.39323878 26.82515344 -12.38392515 22.94006001 -12.37231445 19.0546875 C-12.37995819 17.90232605 -12.38760193 16.7499646 -12.39547729 15.56268311 C-12.38846298 14.50285217 -12.38144867 13.44302124 -12.3742218 12.35107422 C-12.37438954 11.43300995 -12.37455729 10.51494568 -12.37473011 9.56906128 C-11.91534426 6.4196202 -10.86274704 4.56396931 -9 2 C-5.48746854 -0.34168764 -4.13530644 -0.49623677 0 0 Z " fill="#000000" transform="translate(457,132)"/>
<path d="M0 0 C2.52638032 1.66316937 3.56705493 2.4314318 5 5 C5.75086294 9.19736572 5.69762428 13.30913798 5.625 17.5625 C5.65400391 19.26696289 5.65400391 19.26696289 5.68359375 21.00585938 C5.63497202 29.24724227 5.63497202 29.24724227 2.68359375 32.74609375 C-0.84436209 34.39452727 -3.15072069 34.55989517 -7 34 C-9.90717073 31.78136971 -10.83981643 30.48055071 -12 27 C-12.22608152 23.87893507 -12.18515133 20.75342942 -12.1875 17.625 C-12.19974609 16.77421875 -12.21199219 15.9234375 -12.22460938 15.046875 C-12.23716362 9.67365973 -12.17420851 5.25185881 -8.25 1.1875 C-5.19070075 -0.42713016 -3.41702282 -0.55788128 0 0 Z " fill="#000000" transform="translate(457,83)"/>
</svg>
